<svg xmlns="http://www.w3.org/2000/svg" xmlns:xlink="http://www.w3.org/1999/xlink" width="70" zoomAndPan="magnify" viewBox="0 0 52.5 52.499999" height="70" preserveAspectRatio="xMidYMid meet" version="1.0"><defs><clipPath id="id1"><path d="M 1 0 L 6 0 L 6 3 L 1 3 Z M 1 0 " clip-rule="nonzero"/></clipPath><clipPath id="id2"><path d="M -16.988281 5.449219 L 17 -6.414062 L 26.390625 20.492188 L -7.597656 32.359375 Z M -16.988281 5.449219 " clip-rule="nonzero"/></clipPath><clipPath id="id3"><path d="M -16.988281 5.449219 L 17 -6.414062 L 26.390625 20.492188 L -7.597656 32.359375 Z M -16.988281 5.449219 " clip-rule="nonzero"/></clipPath><clipPath id="id4"><path d="M 0 6 L 2 6 L 2 10 L 0 10 Z M 0 6 " clip-rule="nonzero"/></clipPath><clipPath id="id5"><path d="M -16.988281 5.449219 L 17 -6.414062 L 26.390625 20.492188 L -7.597656 32.359375 Z M -16.988281 5.449219 " clip-rule="nonzero"/></clipPath><clipPath id="id6"><path d="M -16.988281 5.449219 L 17 -6.414062 L 26.390625 20.492188 L -7.597656 32.359375 Z M -16.988281 5.449219 " clip-rule="nonzero"/></clipPath><clipPath id="id7"><path d="M 3 4 L 8 4 L 8 8 L 3 8 Z M 3 4 " clip-rule="nonzero"/></clipPath><clipPath id="id8"><path d="M -16.988281 5.449219 L 17 -6.414062 L 26.390625 20.492188 L -7.597656 32.359375 Z M -16.988281 5.449219 " clip-rule="nonzero"/></clipPath><clipPath id="id9"><path d="M -16.988281 5.449219 L 17 -6.414062 L 26.390625 20.492188 L -7.597656 32.359375 Z M -16.988281 5.449219 " clip-rule="nonzero"/></clipPath><clipPath id="id10"><path d="M 9 2 L 14 2 L 14 6 L 9 6 Z M 9 2 " clip-rule="nonzero"/></clipPath><clipPath id="id11"><path d="M -16.988281 5.449219 L 17 -6.414062 L 26.390625 20.492188 L -7.597656 32.359375 Z M -16.988281 5.449219 " clip-rule="nonzero"/></clipPath><clipPath id="id12"><path d="M -16.988281 5.449219 L 17 -6.414062 L 26.390625 20.492188 L -7.597656 32.359375 Z M -16.988281 5.449219 " clip-rule="nonzero"/></clipPath><clipPath id="id13"><path d="M 16 0 L 20 0 L 20 4 L 16 4 Z M 16 0 " clip-rule="nonzero"/></clipPath><clipPath id="id14"><path d="M -16.988281 5.449219 L 17 -6.414062 L 26.390625 20.492188 L -7.597656 32.359375 Z M -16.988281 5.449219 " clip-rule="nonzero"/></clipPath><clipPath id="id15"><path d="M -16.988281 5.449219 L 17 -6.414062 L 26.390625 20.492188 L -7.597656 32.359375 Z M -16.988281 5.449219 " clip-rule="nonzero"/></clipPath><clipPath id="id16"><path d="M 0 12 L 4 12 L 4 16 L 0 16 Z M 0 12 " clip-rule="nonzero"/></clipPath><clipPath id="id17"><path d="M -16.988281 5.449219 L 17 -6.414062 L 26.390625 20.492188 L -7.597656 32.359375 Z M -16.988281 5.449219 " clip-rule="nonzero"/></clipPath><clipPath id="id18"><path d="M -16.988281 5.449219 L 17 -6.414062 L 26.390625 20.492188 L -7.597656 32.359375 Z M -16.988281 5.449219 " clip-rule="nonzero"/></clipPath><clipPath id="id19"><path d="M 5 10 L 10 10 L 10 14 L 5 14 Z M 5 10 " clip-rule="nonzero"/></clipPath><clipPath id="id20"><path d="M -16.988281 5.449219 L 17 -6.414062 L 26.390625 20.492188 L -7.597656 32.359375 Z M -16.988281 5.449219 " clip-rule="nonzero"/></clipPath><clipPath id="id21"><path d="M -16.988281 5.449219 L 17 -6.414062 L 26.390625 20.492188 L -7.597656 32.359375 Z M -16.988281 5.449219 " clip-rule="nonzero"/></clipPath><clipPath id="id22"><path d="M 12 7 L 16 7 L 16 12 L 12 12 Z M 12 7 " clip-rule="nonzero"/></clipPath><clipPath id="id23"><path d="M -16.988281 5.449219 L 17 -6.414062 L 26.390625 20.492188 L -7.597656 32.359375 Z M -16.988281 5.449219 " clip-rule="nonzero"/></clipPath><clipPath id="id24"><path d="M -16.988281 5.449219 L 17 -6.414062 L 26.390625 20.492188 L -7.597656 32.359375 Z M -16.988281 5.449219 " clip-rule="nonzero"/></clipPath><clipPath id="id25"><path d="M 18 5 L 22 5 L 22 10 L 18 10 Z M 18 5 " clip-rule="nonzero"/></clipPath><clipPath id="id26"><path d="M -16.988281 5.449219 L 17 -6.414062 L 26.390625 20.492188 L -7.597656 32.359375 Z M -16.988281 5.449219 " clip-rule="nonzero"/></clipPath><clipPath id="id27"><path d="M -16.988281 5.449219 L 17 -6.414062 L 26.390625 20.492188 L -7.597656 32.359375 Z M -16.988281 5.449219 " clip-rule="nonzero"/></clipPath><clipPath id="id28"><path d="M 1 18 L 6 18 L 6 22 L 1 22 Z M 1 18 " clip-rule="nonzero"/></clipPath><clipPath id="id29"><path d="M -16.988281 5.449219 L 17 -6.414062 L 26.390625 20.492188 L -7.597656 32.359375 Z M -16.988281 5.449219 " clip-rule="nonzero"/></clipPath><clipPath id="id30"><path d="M -16.988281 5.449219 L 17 -6.414062 L 26.390625 20.492188 L -7.597656 32.359375 Z M -16.988281 5.449219 " clip-rule="nonzero"/></clipPath><clipPath id="id31"><path d="M 7 15 L 12 15 L 12 20 L 7 20 Z M 7 15 " clip-rule="nonzero"/></clipPath><clipPath id="id32"><path d="M -16.988281 5.449219 L 17 -6.414062 L 26.390625 20.492188 L -7.597656 32.359375 Z M -16.988281 5.449219 " clip-rule="nonzero"/></clipPath><clipPath id="id33"><path d="M -16.988281 5.449219 L 17 -6.414062 L 26.390625 20.492188 L -7.597656 32.359375 Z M -16.988281 5.449219 " clip-rule="nonzero"/></clipPath><clipPath id="id34"><path d="M 14 13 L 18 13 L 18 18 L 14 18 Z M 14 13 " clip-rule="nonzero"/></clipPath><clipPath id="id35"><path d="M -16.988281 5.449219 L 17 -6.414062 L 26.390625 20.492188 L -7.597656 32.359375 Z M -16.988281 5.449219 " clip-rule="nonzero"/></clipPath><clipPath id="id36"><path d="M -16.988281 5.449219 L 17 -6.414062 L 26.390625 20.492188 L -7.597656 32.359375 Z M -16.988281 5.449219 " clip-rule="nonzero"/></clipPath><clipPath id="id37"><path d="M 20 11 L 24 11 L 24 16 L 20 16 Z M 20 11 " clip-rule="nonzero"/></clipPath><clipPath id="id38"><path d="M -16.988281 5.449219 L 17 -6.414062 L 26.390625 20.492188 L -7.597656 32.359375 Z M -16.988281 5.449219 " clip-rule="nonzero"/></clipPath><clipPath id="id39"><path d="M -16.988281 5.449219 L 17 -6.414062 L 26.390625 20.492188 L -7.597656 32.359375 Z M -16.988281 5.449219 " clip-rule="nonzero"/></clipPath><clipPath id="id40"><path d="M 0 26 L 2 26 L 2 30 L 0 30 Z M 0 26 " clip-rule="nonzero"/></clipPath><clipPath id="id41"><path d="M -16.988281 5.449219 L 17 -6.414062 L 26.390625 20.492188 L -7.597656 32.359375 Z M -16.988281 5.449219 " clip-rule="nonzero"/></clipPath><clipPath id="id42"><path d="M -16.988281 5.449219 L 17 -6.414062 L 26.390625 20.492188 L -7.597656 32.359375 Z M -16.988281 5.449219 " clip-rule="nonzero"/></clipPath><clipPath id="id43"><path d="M 3 23 L 8 23 L 8 28 L 3 28 Z M 3 23 " clip-rule="nonzero"/></clipPath><clipPath id="id44"><path d="M -16.988281 5.449219 L 17 -6.414062 L 26.390625 20.492188 L -7.597656 32.359375 Z M -16.988281 5.449219 " clip-rule="nonzero"/></clipPath><clipPath id="id45"><path d="M -16.988281 5.449219 L 17 -6.414062 L 26.390625 20.492188 L -7.597656 32.359375 Z M -16.988281 5.449219 " clip-rule="nonzero"/></clipPath><clipPath id="id46"><path d="M 10 21 L 14 21 L 14 26 L 10 26 Z M 10 21 " clip-rule="nonzero"/></clipPath><clipPath id="id47"><path d="M -16.988281 5.449219 L 17 -6.414062 L 26.390625 20.492188 L -7.597656 32.359375 Z M -16.988281 5.449219 " clip-rule="nonzero"/></clipPath><clipPath id="id48"><path d="M -16.988281 5.449219 L 17 -6.414062 L 26.390625 20.492188 L -7.597656 32.359375 Z M -16.988281 5.449219 " clip-rule="nonzero"/></clipPath><clipPath id="id49"><path d="M 16 19 L 20 19 L 20 24 L 16 24 Z M 16 19 " clip-rule="nonzero"/></clipPath><clipPath id="id50"><path d="M -16.988281 5.449219 L 17 -6.414062 L 26.390625 20.492188 L -7.597656 32.359375 Z M -16.988281 5.449219 " clip-rule="nonzero"/></clipPath><clipPath id="id51"><path d="M -16.988281 5.449219 L 17 -6.414062 L 26.390625 20.492188 L -7.597656 32.359375 Z M -16.988281 5.449219 " clip-rule="nonzero"/></clipPath><clipPath id="id52"><path d="M 22 17 L 26 17 L 26 22 L 22 22 Z M 22 17 " clip-rule="nonzero"/></clipPath><clipPath id="id53"><path d="M -16.988281 5.449219 L 17 -6.414062 L 26.390625 20.492188 L -7.597656 32.359375 Z M -16.988281 5.449219 " clip-rule="nonzero"/></clipPath><clipPath id="id54"><path d="M -16.988281 5.449219 L 17 -6.414062 L 26.390625 20.492188 L -7.597656 32.359375 Z M -16.988281 5.449219 " clip-rule="nonzero"/></clipPath><clipPath id="id55"><path d="M 0 30 L 4 30 L 4 35 L 0 35 Z M 0 30 " clip-rule="nonzero"/></clipPath><clipPath id="id56"><path d="M -6.832031 33.722656 L 27.15625 21.859375 L 36.550781 48.765625 L 2.5625 60.628906 Z M -6.832031 33.722656 " clip-rule="nonzero"/></clipPath><clipPath id="id57"><path d="M -6.832031 33.722656 L 27.15625 21.859375 L 36.550781 48.765625 L 2.5625 60.628906 Z M -6.832031 33.722656 " clip-rule="nonzero"/></clipPath><clipPath id="id58"><path d="M 5 28 L 10 28 L 10 33 L 5 33 Z M 5 28 " clip-rule="nonzero"/></clipPath><clipPath id="id59"><path d="M -6.832031 33.722656 L 27.15625 21.859375 L 36.550781 48.765625 L 2.5625 60.628906 Z M -6.832031 33.722656 " clip-rule="nonzero"/></clipPath><clipPath id="id60"><path d="M -6.832031 33.722656 L 27.15625 21.859375 L 36.550781 48.765625 L 2.5625 60.628906 Z M -6.832031 33.722656 " clip-rule="nonzero"/></clipPath><clipPath id="id61"><path d="M 12 26 L 16 26 L 16 31 L 12 31 Z M 12 26 " clip-rule="nonzero"/></clipPath><clipPath id="id62"><path d="M -6.832031 33.722656 L 27.15625 21.859375 L 36.550781 48.765625 L 2.5625 60.628906 Z M -6.832031 33.722656 " clip-rule="nonzero"/></clipPath><clipPath id="id63"><path d="M -6.832031 33.722656 L 27.15625 21.859375 L 36.550781 48.765625 L 2.5625 60.628906 Z M -6.832031 33.722656 " clip-rule="nonzero"/></clipPath><clipPath id="id64"><path d="M 18 24 L 22 24 L 22 29 L 18 29 Z M 18 24 " clip-rule="nonzero"/></clipPath><clipPath id="id65"><path d="M -6.832031 33.722656 L 27.15625 21.859375 L 36.550781 48.765625 L 2.5625 60.628906 Z M -6.832031 33.722656 " clip-rule="nonzero"/></clipPath><clipPath id="id66"><path d="M -6.832031 33.722656 L 27.15625 21.859375 L 36.550781 48.765625 L 2.5625 60.628906 Z M -6.832031 33.722656 " clip-rule="nonzero"/></clipPath><clipPath id="id67"><path d="M 24 22 L 28 22 L 28 27 L 24 27 Z M 24 22 " clip-rule="nonzero"/></clipPath><clipPath id="id68"><path d="M -6.832031 33.722656 L 27.15625 21.859375 L 36.550781 48.765625 L 2.5625 60.628906 Z M -6.832031 33.722656 " clip-rule="nonzero"/></clipPath><clipPath id="id69"><path d="M -6.832031 33.722656 L 27.15625 21.859375 L 36.550781 48.765625 L 2.5625 60.628906 Z M -6.832031 33.722656 " clip-rule="nonzero"/></clipPath><clipPath id="id70"><path d="M 1 36 L 6 36 L 6 41 L 1 41 Z M 1 36 " clip-rule="nonzero"/></clipPath><clipPath id="id71"><path d="M -6.832031 33.722656 L 27.15625 21.859375 L 36.550781 48.765625 L 2.5625 60.628906 Z M -6.832031 33.722656 " clip-rule="nonzero"/></clipPath><clipPath id="id72"><path d="M -6.832031 33.722656 L 27.15625 21.859375 L 36.550781 48.765625 L 2.5625 60.628906 Z M -6.832031 33.722656 " clip-rule="nonzero"/></clipPath><clipPath id="id73"><path d="M 7 34 L 12 34 L 12 39 L 7 39 Z M 7 34 " clip-rule="nonzero"/></clipPath><clipPath id="id74"><path d="M -6.832031 33.722656 L 27.15625 21.859375 L 36.550781 48.765625 L 2.5625 60.628906 Z M -6.832031 33.722656 " clip-rule="nonzero"/></clipPath><clipPath id="id75"><path d="M -6.832031 33.722656 L 27.15625 21.859375 L 36.550781 48.765625 L 2.5625 60.628906 Z M -6.832031 33.722656 " clip-rule="nonzero"/></clipPath><clipPath id="id76"><path d="M 14 32 L 18 32 L 18 37 L 14 37 Z M 14 32 " clip-rule="nonzero"/></clipPath><clipPath id="id77"><path d="M -6.832031 33.722656 L 27.15625 21.859375 L 36.550781 48.765625 L 2.5625 60.628906 Z M -6.832031 33.722656 " clip-rule="nonzero"/></clipPath><clipPath id="id78"><path d="M -6.832031 33.722656 L 27.15625 21.859375 L 36.550781 48.765625 L 2.5625 60.628906 Z M -6.832031 33.722656 " clip-rule="nonzero"/></clipPath><clipPath id="id79"><path d="M 20 30 L 24 30 L 24 35 L 20 35 Z M 20 30 " clip-rule="nonzero"/></clipPath><clipPath id="id80"><path d="M -6.832031 33.722656 L 27.15625 21.859375 L 36.550781 48.765625 L 2.5625 60.628906 Z M -6.832031 33.722656 " clip-rule="nonzero"/></clipPath><clipPath id="id81"><path d="M -6.832031 33.722656 L 27.15625 21.859375 L 36.550781 48.765625 L 2.5625 60.628906 Z M -6.832031 33.722656 " clip-rule="nonzero"/></clipPath><clipPath id="id82"><path d="M 26 28 L 30 28 L 30 32 L 26 32 Z M 26 28 " clip-rule="nonzero"/></clipPath><clipPath id="id83"><path d="M -6.832031 33.722656 L 27.15625 21.859375 L 36.550781 48.765625 L 2.5625 60.628906 Z M -6.832031 33.722656 " clip-rule="nonzero"/></clipPath><clipPath id="id84"><path d="M -6.832031 33.722656 L 27.15625 21.859375 L 36.550781 48.765625 L 2.5625 60.628906 Z M -6.832031 33.722656 " clip-rule="nonzero"/></clipPath><clipPath id="id85"><path d="M 0 44 L 2 44 L 2 49 L 0 49 Z M 0 44 " clip-rule="nonzero"/></clipPath><clipPath id="id86"><path d="M -6.832031 33.722656 L 27.15625 21.859375 L 36.550781 48.765625 L 2.5625 60.628906 Z M -6.832031 33.722656 " clip-rule="nonzero"/></clipPath><clipPath id="id87"><path d="M -6.832031 33.722656 L 27.15625 21.859375 L 36.550781 48.765625 L 2.5625 60.628906 Z M -6.832031 33.722656 " clip-rule="nonzero"/></clipPath><clipPath id="id88"><path d="M 3 42 L 8 42 L 8 47 L 3 47 Z M 3 42 " clip-rule="nonzero"/></clipPath><clipPath id="id89"><path d="M -6.832031 33.722656 L 27.15625 21.859375 L 36.550781 48.765625 L 2.5625 60.628906 Z M -6.832031 33.722656 " clip-rule="nonzero"/></clipPath><clipPath id="id90"><path d="M -6.832031 33.722656 L 27.15625 21.859375 L 36.550781 48.765625 L 2.5625 60.628906 Z M -6.832031 33.722656 " clip-rule="nonzero"/></clipPath><clipPath id="id91"><path d="M 9 40 L 14 40 L 14 45 L 9 45 Z M 9 40 " clip-rule="nonzero"/></clipPath><clipPath id="id92"><path d="M -6.832031 33.722656 L 27.15625 21.859375 L 36.550781 48.765625 L 2.5625 60.628906 Z M -6.832031 33.722656 " clip-rule="nonzero"/></clipPath><clipPath id="id93"><path d="M -6.832031 33.722656 L 27.15625 21.859375 L 36.550781 48.765625 L 2.5625 60.628906 Z M -6.832031 33.722656 " clip-rule="nonzero"/></clipPath><clipPath id="id94"><path d="M 16 38 L 20 38 L 20 42 L 16 42 Z M 16 38 " clip-rule="nonzero"/></clipPath><clipPath id="id95"><path d="M -6.832031 33.722656 L 27.15625 21.859375 L 36.550781 48.765625 L 2.5625 60.628906 Z M -6.832031 33.722656 " clip-rule="nonzero"/></clipPath><clipPath id="id96"><path d="M -6.832031 33.722656 L 27.15625 21.859375 L 36.550781 48.765625 L 2.5625 60.628906 Z M -6.832031 33.722656 " clip-rule="nonzero"/></clipPath><clipPath id="id97"><path d="M 22 36 L 26 36 L 26 40 L 22 40 Z M 22 36 " clip-rule="nonzero"/></clipPath><clipPath id="id98"><path d="M -6.832031 33.722656 L 27.15625 21.859375 L 36.550781 48.765625 L 2.5625 60.628906 Z M -6.832031 33.722656 " clip-rule="nonzero"/></clipPath><clipPath id="id99"><path d="M -6.832031 33.722656 L 27.15625 21.859375 L 36.550781 48.765625 L 2.5625 60.628906 Z M -6.832031 33.722656 " clip-rule="nonzero"/></clipPath><clipPath id="id100"><path d="M 28 34 L 32 34 L 32 38 L 28 38 Z M 28 34 " clip-rule="nonzero"/></clipPath><clipPath id="id101"><path d="M -6.832031 33.722656 L 27.15625 21.859375 L 36.550781 48.765625 L 2.5625 60.628906 Z M -6.832031 33.722656 " clip-rule="nonzero"/></clipPath><clipPath id="id102"><path d="M -6.832031 33.722656 L 27.15625 21.859375 L 36.550781 48.765625 L 2.5625 60.628906 Z M -6.832031 33.722656 " clip-rule="nonzero"/></clipPath><clipPath id="id103"><path d="M 0 50 L 4 50 L 4 52.003906 L 0 52.003906 Z M 0 50 " clip-rule="nonzero"/></clipPath><clipPath id="id104"><path d="M -6.832031 33.722656 L 27.15625 21.859375 L 36.550781 48.765625 L 2.5625 60.628906 Z M -6.832031 33.722656 " clip-rule="nonzero"/></clipPath><clipPath id="id105"><path d="M -6.832031 33.722656 L 27.15625 21.859375 L 36.550781 48.765625 L 2.5625 60.628906 Z M -6.832031 33.722656 " clip-rule="nonzero"/></clipPath><clipPath id="id106"><path d="M 5 48 L 10 48 L 10 52.003906 L 5 52.003906 Z M 5 48 " clip-rule="nonzero"/></clipPath><clipPath id="id107"><path d="M -6.832031 33.722656 L 27.15625 21.859375 L 36.550781 48.765625 L 2.5625 60.628906 Z M -6.832031 33.722656 " clip-rule="nonzero"/></clipPath><clipPath id="id108"><path d="M -6.832031 33.722656 L 27.15625 21.859375 L 36.550781 48.765625 L 2.5625 60.628906 Z M -6.832031 33.722656 " clip-rule="nonzero"/></clipPath><clipPath id="id109"><path d="M 12 46 L 16 46 L 16 50 L 12 50 Z M 12 46 " clip-rule="nonzero"/></clipPath><clipPath id="id110"><path d="M -6.832031 33.722656 L 27.15625 21.859375 L 36.550781 48.765625 L 2.5625 60.628906 Z M -6.832031 33.722656 " clip-rule="nonzero"/></clipPath><clipPath id="id111"><path d="M -6.832031 33.722656 L 27.15625 21.859375 L 36.550781 48.765625 L 2.5625 60.628906 Z M -6.832031 33.722656 " clip-rule="nonzero"/></clipPath><clipPath id="id112"><path d="M 18 44 L 22 44 L 22 48 L 18 48 Z M 18 44 " clip-rule="nonzero"/></clipPath><clipPath id="id113"><path d="M -6.832031 33.722656 L 27.15625 21.859375 L 36.550781 48.765625 L 2.5625 60.628906 Z M -6.832031 33.722656 " clip-rule="nonzero"/></clipPath><clipPath id="id114"><path d="M -6.832031 33.722656 L 27.15625 21.859375 L 36.550781 48.765625 L 2.5625 60.628906 Z M -6.832031 33.722656 " clip-rule="nonzero"/></clipPath><clipPath id="id115"><path d="M 24 42 L 28 42 L 28 46 L 24 46 Z M 24 42 " clip-rule="nonzero"/></clipPath><clipPath id="id116"><path d="M -6.832031 33.722656 L 27.15625 21.859375 L 36.550781 48.765625 L 2.5625 60.628906 Z M -6.832031 33.722656 " clip-rule="nonzero"/></clipPath><clipPath id="id117"><path d="M -6.832031 33.722656 L 27.15625 21.859375 L 36.550781 48.765625 L 2.5625 60.628906 Z M -6.832031 33.722656 " clip-rule="nonzero"/></clipPath><clipPath id="id118"><path d="M 30 39 L 34 39 L 34 44 L 30 44 Z M 30 39 " clip-rule="nonzero"/></clipPath><clipPath id="id119"><path d="M -6.832031 33.722656 L 27.15625 21.859375 L 36.550781 48.765625 L 2.5625 60.628906 Z M -6.832031 33.722656 " clip-rule="nonzero"/></clipPath><clipPath id="id120"><path d="M -6.832031 33.722656 L 27.15625 21.859375 L 36.550781 48.765625 L 2.5625 60.628906 Z M -6.832031 33.722656 " clip-rule="nonzero"/></clipPath><clipPath id="id121"><path d="M 14 52 L 18 52 L 18 52.003906 L 14 52.003906 Z M 14 52 " clip-rule="nonzero"/></clipPath><clipPath id="id122"><path d="M -6.832031 33.722656 L 27.15625 21.859375 L 36.550781 48.765625 L 2.5625 60.628906 Z M -6.832031 33.722656 " clip-rule="nonzero"/></clipPath><clipPath id="id123"><path d="M -6.832031 33.722656 L 27.15625 21.859375 L 36.550781 48.765625 L 2.5625 60.628906 Z M -6.832031 33.722656 " clip-rule="nonzero"/></clipPath><clipPath id="id124"><path d="M 20 50 L 24 50 L 24 52.003906 L 20 52.003906 Z M 20 50 " clip-rule="nonzero"/></clipPath><clipPath id="id125"><path d="M -6.832031 33.722656 L 27.15625 21.859375 L 36.550781 48.765625 L 2.5625 60.628906 Z M -6.832031 33.722656 " clip-rule="nonzero"/></clipPath><clipPath id="id126"><path d="M -6.832031 33.722656 L 27.15625 21.859375 L 36.550781 48.765625 L 2.5625 60.628906 Z M -6.832031 33.722656 " clip-rule="nonzero"/></clipPath><clipPath id="id127"><path d="M 26 47 L 30 47 L 30 52 L 26 52 Z M 26 47 " clip-rule="nonzero"/></clipPath><clipPath id="id128"><path d="M -6.832031 33.722656 L 27.15625 21.859375 L 36.550781 48.765625 L 2.5625 60.628906 Z M -6.832031 33.722656 " clip-rule="nonzero"/></clipPath><clipPath id="id129"><path d="M -6.832031 33.722656 L 27.15625 21.859375 L 36.550781 48.765625 L 2.5625 60.628906 Z M -6.832031 33.722656 " clip-rule="nonzero"/></clipPath><clipPath id="id130"><path d="M 32 45 L 37 45 L 37 50 L 32 50 Z M 32 45 " clip-rule="nonzero"/></clipPath><clipPath id="id131"><path d="M -6.832031 33.722656 L 27.15625 21.859375 L 36.550781 48.765625 L 2.5625 60.628906 Z M -6.832031 33.722656 " clip-rule="nonzero"/></clipPath><clipPath id="id132"><path d="M -6.832031 33.722656 L 27.15625 21.859375 L 36.550781 48.765625 L 2.5625 60.628906 Z M -6.832031 33.722656 " clip-rule="nonzero"/></clipPath></defs><g clip-path="url(#id1)"><g clip-path="url(#id2)"><g clip-path="url(#id3)"><path fill="#545454" d="M 5.375 -0.566406 L 3.785156 -0.0117188 L 3.238281 -1.582031 L 2.886719 -1.457031 L 3.433594 0.109375 L 1.84375 0.664062 L 1.960938 1.007812 L 3.554688 0.449219 L 4.101562 2.023438 L 4.453125 1.902344 L 3.90625 0.328125 L 5.496094 -0.226562 Z M 5.375 -0.566406 " fill-opacity="1" fill-rule="nonzero"/></g></g></g><g clip-path="url(#id4)"><g clip-path="url(#id5)"><g clip-path="url(#id6)"><path fill="#545454" d="M 1.320312 7.402344 L -0.269531 7.957031 L -0.816406 6.390625 L -1.167969 6.511719 L -0.621094 8.082031 L -2.210938 8.636719 L -2.089844 8.980469 L -0.5 8.425781 L 0.046875 9.996094 L 0.398438 9.871094 L -0.148438 8.304688 L 1.441406 7.75 Z M 1.320312 7.402344 " fill-opacity="1" fill-rule="nonzero"/></g></g></g><g clip-path="url(#id7)"><g clip-path="url(#id8)"><g clip-path="url(#id9)"><path fill="#545454" d="M 7.414062 5.273438 L 5.824219 5.832031 L 5.277344 4.261719 L 4.925781 4.386719 L 5.472656 5.953125 L 3.882812 6.507812 L 4.003906 6.855469 L 5.59375 6.300781 L 6.140625 7.867188 L 6.492188 7.742188 L 5.945312 6.175781 L 7.535156 5.621094 Z M 7.414062 5.273438 " fill-opacity="1" fill-rule="nonzero"/></g></g></g><g clip-path="url(#id10)"><g clip-path="url(#id11)"><g clip-path="url(#id12)"><path fill="#545454" d="M 13.511719 3.148438 L 11.921875 3.703125 L 11.375 2.136719 L 11.023438 2.257812 L 11.570312 3.824219 L 9.976562 4.378906 L 10.097656 4.726562 L 11.691406 4.171875 L 12.238281 5.738281 L 12.589844 5.617188 L 12.042969 4.046875 L 13.632812 3.492188 Z M 13.511719 3.148438 " fill-opacity="1" fill-rule="nonzero"/></g></g></g><g clip-path="url(#id13)"><g clip-path="url(#id14)"><g clip-path="url(#id15)"><path fill="#545454" d="M 19.605469 1.019531 L 18.015625 1.574219 L 17.46875 0.0078125 L 17.121094 0.128906 L 17.667969 1.695312 L 16.074219 2.253906 L 16.195312 2.597656 L 17.789062 2.042969 L 18.335938 3.609375 L 18.683594 3.488281 L 18.136719 1.921875 L 19.726562 1.367188 Z M 19.605469 1.019531 " fill-opacity="1" fill-rule="nonzero"/></g></g></g><g clip-path="url(#id16)"><g clip-path="url(#id17)"><g clip-path="url(#id18)"><path fill="#545454" d="M 3.359375 13.246094 L 1.769531 13.800781 L 1.222656 12.234375 L 0.871094 12.355469 L 1.417969 13.925781 L -0.171875 14.480469 L -0.0507812 14.824219 L 1.539062 14.269531 L 2.085938 15.835938 L 2.4375 15.714844 L 1.890625 14.148438 L 3.480469 13.59375 Z M 3.359375 13.246094 " fill-opacity="1" fill-rule="nonzero"/></g></g></g><g clip-path="url(#id19)"><g clip-path="url(#id20)"><g clip-path="url(#id21)"><path fill="#545454" d="M 9.457031 11.117188 L 7.863281 11.671875 L 7.316406 10.105469 L 6.964844 10.226562 L 7.511719 11.796875 L 5.921875 12.351562 L 6.042969 12.699219 L 7.632812 12.140625 L 8.179688 13.710938 L 8.53125 13.585938 L 7.984375 12.019531 L 9.578125 11.464844 Z M 9.457031 11.117188 " fill-opacity="1" fill-rule="nonzero"/></g></g></g><g clip-path="url(#id22)"><g clip-path="url(#id23)"><g clip-path="url(#id24)"><path fill="#545454" d="M 15.550781 8.992188 L 13.960938 9.546875 L 13.414062 7.976562 L 13.0625 8.101562 L 13.609375 9.667969 L 12.019531 10.222656 L 12.136719 10.570312 L 13.730469 10.015625 L 14.277344 11.582031 L 14.628906 11.460938 L 14.082031 9.890625 L 15.671875 9.335938 Z M 15.550781 8.992188 " fill-opacity="1" fill-rule="nonzero"/></g></g></g><g clip-path="url(#id25)"><g clip-path="url(#id26)"><g clip-path="url(#id27)"><path fill="#545454" d="M 21.644531 6.863281 L 20.054688 7.417969 L 19.507812 5.851562 L 19.160156 5.972656 L 19.710938 7.539062 L 18.113281 8.097656 L 18.234375 8.441406 L 19.828125 7.886719 L 20.378906 9.453125 L 20.722656 9.332031 L 20.175781 7.765625 L 21.765625 7.210938 Z M 21.644531 6.863281 " fill-opacity="1" fill-rule="nonzero"/></g></g></g><g clip-path="url(#id28)"><g clip-path="url(#id29)"><g clip-path="url(#id30)"><path fill="#545454" d="M 5.398438 19.089844 L 3.808594 19.644531 L 3.261719 18.078125 L 2.910156 18.199219 L 3.457031 19.765625 L 1.867188 20.324219 L 1.988281 20.667969 L 3.578125 20.113281 L 4.125 21.679688 L 4.476562 21.558594 L 3.929688 19.992188 L 5.519531 19.433594 Z M 5.398438 19.089844 " fill-opacity="1" fill-rule="nonzero"/></g></g></g><g clip-path="url(#id31)"><g clip-path="url(#id32)"><g clip-path="url(#id33)"><path fill="#545454" d="M 11.496094 16.960938 L 9.90625 17.515625 L 9.355469 15.949219 L 9.007812 16.070312 L 9.554688 17.640625 L 7.960938 18.195312 L 8.082031 18.539062 L 9.675781 17.984375 L 10.222656 19.554688 L 10.574219 19.429688 L 10.023438 17.863281 L 11.617188 17.308594 Z M 11.496094 16.960938 " fill-opacity="1" fill-rule="nonzero"/></g></g></g><g clip-path="url(#id34)"><g clip-path="url(#id35)"><g clip-path="url(#id36)"><path fill="#545454" d="M 17.589844 14.832031 L 16 15.390625 L 15.453125 13.820312 L 15.101562 13.945312 L 15.648438 15.511719 L 14.058594 16.066406 L 14.179688 16.414062 L 15.769531 15.859375 L 16.316406 17.425781 L 16.667969 17.304688 L 16.121094 15.734375 L 17.710938 15.179688 Z M 17.589844 14.832031 " fill-opacity="1" fill-rule="nonzero"/></g></g></g><g clip-path="url(#id37)"><g clip-path="url(#id38)"><g clip-path="url(#id39)"><path fill="#545454" d="M 23.6875 12.707031 L 22.09375 13.261719 L 21.546875 11.695312 L 21.203125 11.816406 L 21.75 13.382812 L 20.152344 13.941406 L 20.273438 14.285156 L 21.871094 13.730469 L 22.417969 15.296875 L 22.761719 15.175781 L 22.214844 13.609375 L 23.808594 13.050781 Z M 23.6875 12.707031 " fill-opacity="1" fill-rule="nonzero"/></g></g></g><g clip-path="url(#id40)"><g clip-path="url(#id41)"><g clip-path="url(#id42)"><path fill="#545454" d="M 1.347656 27.066406 L -0.246094 27.621094 L -0.792969 26.046875 L -1.144531 26.171875 L -0.597656 27.742188 L -2.1875 28.296875 L -2.066406 28.640625 L -0.476562 28.085938 L 0.0703125 29.652344 L 0.421875 29.53125 L -0.125 27.960938 L 1.464844 27.40625 Z M 1.347656 27.066406 " fill-opacity="1" fill-rule="nonzero"/></g></g></g><g clip-path="url(#id43)"><g clip-path="url(#id44)"><g clip-path="url(#id45)"><path fill="#545454" d="M 7.441406 24.9375 L 5.851562 25.492188 L 5.300781 23.921875 L 4.949219 24.042969 L 5.5 25.617188 L 3.910156 26.171875 L 4.027344 26.511719 L 5.617188 25.957031 L 6.164062 27.523438 L 6.515625 27.402344 L 5.96875 25.832031 L 7.5625 25.277344 Z M 7.441406 24.9375 " fill-opacity="1" fill-rule="nonzero"/></g></g></g><g clip-path="url(#id46)"><g clip-path="url(#id47)"><g clip-path="url(#id48)"><path fill="#545454" d="M 13.535156 22.808594 L 11.945312 23.367188 L 11.398438 21.792969 L 11.046875 21.914062 L 11.59375 23.488281 L 10.003906 24.042969 L 10.121094 24.382812 L 11.714844 23.828125 L 12.261719 25.398438 L 12.613281 25.273438 L 12.066406 23.707031 L 13.65625 23.152344 Z M 13.535156 22.808594 " fill-opacity="1" fill-rule="nonzero"/></g></g></g><g clip-path="url(#id49)"><g clip-path="url(#id50)"><g clip-path="url(#id51)"><path fill="#545454" d="M 19.632812 20.683594 L 18.042969 21.238281 L 17.492188 19.664062 L 17.140625 19.789062 L 17.691406 21.359375 L 16.097656 21.914062 L 16.21875 22.257812 L 17.808594 21.703125 L 18.355469 23.269531 L 18.707031 23.144531 L 18.160156 21.578125 L 19.75 21.023438 Z M 19.632812 20.683594 " fill-opacity="1" fill-rule="nonzero"/></g></g></g><g clip-path="url(#id52)"><g clip-path="url(#id53)"><g clip-path="url(#id54)"><path fill="#545454" d="M 25.726562 18.554688 L 24.136719 19.109375 L 23.585938 17.539062 L 23.242188 17.65625 L 23.789062 19.230469 L 22.195312 19.789062 L 22.3125 20.128906 L 23.910156 19.570312 L 24.457031 21.140625 L 24.800781 21.019531 L 24.253906 19.449219 L 25.847656 18.894531 Z M 25.726562 18.554688 " fill-opacity="1" fill-rule="nonzero"/></g></g></g><g clip-path="url(#id55)"><g clip-path="url(#id56)"><g clip-path="url(#id57)"><path fill="#545454" d="M 3.34375 31.957031 L 1.753906 32.515625 L 1.207031 30.945312 L 0.855469 31.070312 L 1.402344 32.636719 L -0.191406 33.191406 L -0.0703125 33.53125 L 1.519531 32.976562 L 2.070312 34.550781 L 2.421875 34.429688 L 1.871094 32.855469 L 3.460938 32.300781 Z M 3.34375 31.957031 " fill-opacity="1" fill-rule="nonzero"/></g></g></g><g clip-path="url(#id58)"><g clip-path="url(#id59)"><g clip-path="url(#id60)"><path fill="#545454" d="M 9.4375 29.832031 L 7.847656 30.386719 L 7.300781 28.820312 L 6.949219 28.941406 L 7.496094 30.507812 L 5.90625 31.066406 L 6.023438 31.40625 L 7.617188 30.851562 L 8.164062 32.421875 L 8.515625 32.300781 L 7.96875 30.726562 L 9.558594 30.171875 Z M 9.4375 29.832031 " fill-opacity="1" fill-rule="nonzero"/></g></g></g><g clip-path="url(#id61)"><g clip-path="url(#id62)"><g clip-path="url(#id63)"><path fill="#545454" d="M 15.535156 27.703125 L 13.941406 28.257812 L 13.394531 26.691406 L 13.042969 26.8125 L 13.59375 28.382812 L 12 28.9375 L 12.121094 29.277344 L 13.710938 28.722656 L 14.261719 30.296875 L 14.609375 30.171875 L 14.0625 28.601562 L 15.652344 28.042969 Z M 15.535156 27.703125 " fill-opacity="1" fill-rule="nonzero"/></g></g></g><g clip-path="url(#id64)"><g clip-path="url(#id65)"><g clip-path="url(#id66)"><path fill="#545454" d="M 21.628906 25.574219 L 20.039062 26.132812 L 19.492188 24.5625 L 19.140625 24.6875 L 19.6875 26.253906 L 18.097656 26.808594 L 18.214844 27.148438 L 19.804688 26.59375 L 20.355469 28.167969 L 20.707031 28.046875 L 20.15625 26.472656 L 21.75 25.917969 Z M 21.628906 25.574219 " fill-opacity="1" fill-rule="nonzero"/></g></g></g><g clip-path="url(#id67)"><g clip-path="url(#id68)"><g clip-path="url(#id69)"><path fill="#545454" d="M 27.726562 23.449219 L 26.132812 24.003906 L 25.585938 22.4375 L 25.242188 22.558594 L 25.789062 24.125 L 24.191406 24.679688 L 24.3125 25.023438 L 25.90625 24.464844 L 26.457031 26.039062 L 26.800781 25.917969 L 26.253906 24.34375 L 27.84375 23.789062 Z M 27.726562 23.449219 " fill-opacity="1" fill-rule="nonzero"/></g></g></g><g clip-path="url(#id70)"><g clip-path="url(#id71)"><g clip-path="url(#id72)"><path fill="#545454" d="M 5.382812 37.800781 L 3.792969 38.359375 L 3.246094 36.789062 L 2.894531 36.914062 L 3.441406 38.480469 L 1.851562 39.035156 L 1.972656 39.382812 L 3.5625 38.828125 L 4.109375 40.394531 L 4.460938 40.269531 L 3.914062 38.703125 L 5.503906 38.148438 Z M 5.382812 37.800781 " fill-opacity="1" fill-rule="nonzero"/></g></g></g><g clip-path="url(#id73)"><g clip-path="url(#id74)"><g clip-path="url(#id75)"><path fill="#545454" d="M 11.480469 35.675781 L 9.886719 36.230469 L 9.339844 34.664062 L 8.988281 34.785156 L 9.535156 36.351562 L 7.945312 36.90625 L 8.066406 37.253906 L 9.65625 36.699219 L 10.203125 38.265625 L 10.554688 38.144531 L 10.007812 36.574219 L 11.597656 36.019531 Z M 11.480469 35.675781 " fill-opacity="1" fill-rule="nonzero"/></g></g></g><g clip-path="url(#id76)"><g clip-path="url(#id77)"><g clip-path="url(#id78)"><path fill="#545454" d="M 17.574219 33.546875 L 15.984375 34.101562 L 15.4375 32.535156 L 15.085938 32.65625 L 15.632812 34.226562 L 14.039062 34.78125 L 14.160156 35.125 L 15.753906 34.570312 L 16.300781 36.136719 L 16.652344 36.015625 L 16.105469 34.449219 L 17.695312 33.894531 Z M 17.574219 33.546875 " fill-opacity="1" fill-rule="nonzero"/></g></g></g><g clip-path="url(#id79)"><g clip-path="url(#id80)"><g clip-path="url(#id81)"><path fill="#545454" d="M 23.667969 31.417969 L 22.078125 31.972656 L 21.53125 30.40625 L 21.179688 30.53125 L 21.726562 32.097656 L 20.136719 32.652344 L 20.257812 33 L 21.847656 32.441406 L 22.394531 34.011719 L 22.746094 33.886719 L 22.199219 32.320312 L 23.789062 31.765625 Z M 23.667969 31.417969 " fill-opacity="1" fill-rule="nonzero"/></g></g></g><g clip-path="url(#id82)"><g clip-path="url(#id83)"><g clip-path="url(#id84)"><path fill="#545454" d="M 29.765625 29.292969 L 28.171875 29.847656 L 27.625 28.277344 L 27.28125 28.398438 L 27.828125 29.96875 L 26.230469 30.523438 L 26.351562 30.871094 L 27.949219 30.3125 L 28.496094 31.882812 L 28.839844 31.761719 L 28.292969 30.191406 L 29.886719 29.636719 Z M 29.765625 29.292969 " fill-opacity="1" fill-rule="nonzero"/></g></g></g><g clip-path="url(#id85)"><g clip-path="url(#id86)"><g clip-path="url(#id87)"><path fill="#545454" d="M 1.328125 45.773438 L -0.269531 46.332031 L -0.816406 44.761719 L -1.160156 44.882812 L -0.613281 46.449219 L -2.207031 47.007812 L -2.085938 47.351562 L -0.492188 46.796875 L 0.0546875 48.363281 L 0.398438 48.242188 L -0.148438 46.675781 L 1.449219 46.121094 Z M 1.328125 45.773438 " fill-opacity="1" fill-rule="nonzero"/></g></g></g><g clip-path="url(#id88)"><g clip-path="url(#id89)"><g clip-path="url(#id90)"><path fill="#545454" d="M 7.421875 43.644531 L 5.832031 44.199219 L 5.285156 42.632812 L 4.933594 42.753906 L 5.480469 44.324219 L 3.890625 44.878906 L 4.011719 45.226562 L 5.601562 44.667969 L 6.148438 46.238281 L 6.5 46.113281 L 5.953125 44.546875 L 7.542969 43.992188 Z M 7.421875 43.644531 " fill-opacity="1" fill-rule="nonzero"/></g></g></g><g clip-path="url(#id91)"><g clip-path="url(#id92)"><g clip-path="url(#id93)"><path fill="#545454" d="M 13.519531 41.519531 L 11.925781 42.074219 L 11.378906 40.503906 L 11.027344 40.628906 L 11.574219 42.195312 L 9.984375 42.75 L 10.105469 43.097656 L 11.695312 42.542969 L 12.242188 44.109375 L 12.59375 43.988281 L 12.046875 42.417969 L 13.640625 41.863281 Z M 13.519531 41.519531 " fill-opacity="1" fill-rule="nonzero"/></g></g></g><g clip-path="url(#id94)"><g clip-path="url(#id95)"><g clip-path="url(#id96)"><path fill="#545454" d="M 19.613281 39.390625 L 18.023438 39.945312 L 17.476562 38.378906 L 17.125 38.5 L 17.671875 40.066406 L 16.082031 40.625 L 16.203125 40.96875 L 17.792969 40.414062 L 18.339844 41.980469 L 18.691406 41.859375 L 18.144531 40.292969 L 19.734375 39.734375 Z M 19.613281 39.390625 " fill-opacity="1" fill-rule="nonzero"/></g></g></g><g clip-path="url(#id97)"><g clip-path="url(#id98)"><g clip-path="url(#id99)"><path fill="#545454" d="M 25.707031 37.261719 L 24.117188 37.816406 L 23.570312 36.25 L 23.21875 36.371094 L 23.765625 37.941406 L 22.175781 38.496094 L 22.296875 38.84375 L 23.886719 38.285156 L 24.433594 39.855469 L 24.785156 39.730469 L 24.238281 38.164062 L 25.828125 37.609375 Z M 25.707031 37.261719 " fill-opacity="1" fill-rule="nonzero"/></g></g></g><g clip-path="url(#id100)"><g clip-path="url(#id101)"><g clip-path="url(#id102)"><path fill="#545454" d="M 31.804688 35.136719 L 30.214844 35.691406 L 29.664062 34.121094 L 29.320312 34.242188 L 29.867188 35.8125 L 28.269531 36.367188 L 28.390625 36.714844 L 29.988281 36.15625 L 30.535156 37.726562 L 30.882812 37.605469 L 30.332031 36.035156 L 31.925781 35.480469 Z M 31.804688 35.136719 " fill-opacity="1" fill-rule="nonzero"/></g></g></g><g clip-path="url(#id103)"><g clip-path="url(#id104)"><g clip-path="url(#id105)"><path fill="#545454" d="M 3.367188 51.617188 L 1.769531 52.171875 L 1.222656 50.605469 L 0.878906 50.726562 L 1.425781 52.292969 L -0.164062 52.851562 L -0.0429688 53.195312 L 1.546875 52.640625 L 2.09375 54.207031 L 2.4375 54.085938 L 1.890625 52.519531 L 3.488281 51.960938 Z M 3.367188 51.617188 " fill-opacity="1" fill-rule="nonzero"/></g></g></g><g clip-path="url(#id106)"><g clip-path="url(#id107)"><g clip-path="url(#id108)"><path fill="#545454" d="M 9.460938 49.488281 L 7.871094 50.042969 L 7.324219 48.476562 L 6.972656 48.597656 L 7.519531 50.167969 L 5.929688 50.722656 L 6.050781 51.066406 L 7.640625 50.511719 L 8.1875 52.082031 L 8.539062 51.957031 L 7.992188 50.390625 L 9.582031 49.835938 Z M 9.460938 49.488281 " fill-opacity="1" fill-rule="nonzero"/></g></g></g><g clip-path="url(#id109)"><g clip-path="url(#id110)"><g clip-path="url(#id111)"><path fill="#545454" d="M 15.558594 47.359375 L 13.96875 47.917969 L 13.417969 46.347656 L 13.070312 46.472656 L 13.617188 48.039062 L 12.023438 48.59375 L 12.144531 48.941406 L 13.738281 48.386719 L 14.285156 49.953125 L 14.636719 49.832031 L 14.085938 48.261719 L 15.679688 47.707031 Z M 15.558594 47.359375 " fill-opacity="1" fill-rule="nonzero"/></g></g></g><g clip-path="url(#id112)"><g clip-path="url(#id113)"><g clip-path="url(#id114)"><path fill="#545454" d="M 21.652344 45.234375 L 20.0625 45.789062 L 19.515625 44.222656 L 19.164062 44.34375 L 19.710938 45.910156 L 18.121094 46.464844 L 18.242188 46.8125 L 19.832031 46.257812 L 20.378906 47.824219 L 20.730469 47.703125 L 20.183594 46.136719 L 21.773438 45.578125 Z M 21.652344 45.234375 " fill-opacity="1" fill-rule="nonzero"/></g></g></g><g clip-path="url(#id115)"><g clip-path="url(#id116)"><g clip-path="url(#id117)"><path fill="#545454" d="M 27.75 43.105469 L 26.15625 43.660156 L 25.609375 42.09375 L 25.257812 42.214844 L 25.804688 43.785156 L 24.214844 44.339844 L 24.335938 44.683594 L 25.925781 44.128906 L 26.472656 45.699219 L 26.824219 45.574219 L 26.277344 44.007812 L 27.871094 43.453125 Z M 27.75 43.105469 " fill-opacity="1" fill-rule="nonzero"/></g></g></g><g clip-path="url(#id118)"><g clip-path="url(#id119)"><g clip-path="url(#id120)"><path fill="#545454" d="M 33.84375 40.976562 L 32.253906 41.535156 L 31.707031 39.964844 L 31.359375 40.085938 L 31.90625 41.65625 L 30.3125 42.210938 L 30.429688 42.558594 L 32.027344 42 L 32.574219 43.566406 L 32.921875 43.449219 L 32.375 41.878906 L 33.964844 41.324219 Z M 33.84375 40.976562 " fill-opacity="1" fill-rule="nonzero"/></g></g></g><g clip-path="url(#id121)"><g clip-path="url(#id122)"><g clip-path="url(#id123)"><path fill="#545454" d="M 17.597656 53.210938 L 16.007812 53.765625 L 15.460938 52.191406 L 15.109375 52.316406 L 15.65625 53.886719 L 14.066406 54.441406 L 14.183594 54.785156 L 15.777344 54.226562 L 16.324219 55.796875 L 16.675781 55.671875 L 16.128906 54.105469 L 17.71875 53.550781 Z M 17.597656 53.210938 " fill-opacity="1" fill-rule="nonzero"/></g></g></g><g clip-path="url(#id124)"><g clip-path="url(#id125)"><g clip-path="url(#id126)"><path fill="#545454" d="M 23.695312 51.082031 L 22.105469 51.636719 L 21.554688 50.0625 L 21.203125 50.1875 L 21.753906 51.761719 L 20.160156 52.316406 L 20.28125 52.65625 L 21.871094 52.101562 L 22.417969 53.667969 L 22.769531 53.546875 L 22.222656 51.976562 L 23.8125 51.421875 Z M 23.695312 51.082031 " fill-opacity="1" fill-rule="nonzero"/></g></g></g><g clip-path="url(#id127)"><g clip-path="url(#id128)"><g clip-path="url(#id129)"><path fill="#545454" d="M 29.789062 48.953125 L 28.199219 49.507812 L 27.648438 47.9375 L 27.296875 48.058594 L 27.847656 49.632812 L 26.257812 50.1875 L 26.375 50.527344 L 27.964844 49.972656 L 28.515625 51.539062 L 28.867188 51.417969 L 28.316406 49.851562 L 29.910156 49.296875 Z M 29.789062 48.953125 " fill-opacity="1" fill-rule="nonzero"/></g></g></g><g clip-path="url(#id130)"><g clip-path="url(#id131)"><g clip-path="url(#id132)"><path fill="#545454" d="M 35.886719 46.828125 L 34.292969 47.382812 L 33.746094 45.808594 L 33.398438 45.929688 L 33.949219 47.503906 L 32.351562 48.058594 L 32.472656 48.402344 L 34.066406 47.84375 L 34.613281 49.410156 L 34.960938 49.289062 L 34.414062 47.722656 L 36.003906 47.167969 Z M 35.886719 46.828125 " fill-opacity="1" fill-rule="nonzero"/></g></g></g></svg>