<svg xmlns="http://www.w3.org/2000/svg" xmlns:xlink="http://www.w3.org/1999/xlink" width="70" zoomAndPan="magnify" viewBox="0 0 52.5 52.499999" height="70" preserveAspectRatio="xMidYMid meet" version="1.0"><defs><clipPath id="843667e35e"><path d="M 16 7 L 21 7 L 21 12 L 16 12 Z M 16 7 " clip-rule="nonzero"/></clipPath><clipPath id="bd6e2f7a5a"><path d="M 16.21875 8.296875 L 50.207031 -3.566406 L 59.601562 23.339844 L 25.613281 35.203125 Z M 16.21875 8.296875 " clip-rule="nonzero"/></clipPath><clipPath id="1f6232d6b2"><path d="M 16.21875 8.296875 L 50.207031 -3.566406 L 59.601562 23.339844 L 25.613281 35.203125 Z M 16.21875 8.296875 " clip-rule="nonzero"/></clipPath><clipPath id="1990d72142"><path d="M 22 5 L 27 5 L 27 10 L 22 10 Z M 22 5 " clip-rule="nonzero"/></clipPath><clipPath id="30c4a9af0c"><path d="M 16.21875 8.296875 L 50.207031 -3.566406 L 59.601562 23.339844 L 25.613281 35.203125 Z M 16.21875 8.296875 " clip-rule="nonzero"/></clipPath><clipPath id="6635068b09"><path d="M 16.21875 8.296875 L 50.207031 -3.566406 L 59.601562 23.339844 L 25.613281 35.203125 Z M 16.21875 8.296875 " clip-rule="nonzero"/></clipPath><clipPath id="9fed8a6243"><path d="M 28 3 L 33 3 L 33 7 L 28 7 Z M 28 3 " clip-rule="nonzero"/></clipPath><clipPath id="6c9460516f"><path d="M 16.21875 8.296875 L 50.207031 -3.566406 L 59.601562 23.339844 L 25.613281 35.203125 Z M 16.21875 8.296875 " clip-rule="nonzero"/></clipPath><clipPath id="44336ceac3"><path d="M 16.21875 8.296875 L 50.207031 -3.566406 L 59.601562 23.339844 L 25.613281 35.203125 Z M 16.21875 8.296875 " clip-rule="nonzero"/></clipPath><clipPath id="20282668cc"><path d="M 35 1 L 39 1 L 39 5 L 35 5 Z M 35 1 " clip-rule="nonzero"/></clipPath><clipPath id="72097c5441"><path d="M 16.21875 8.296875 L 50.207031 -3.566406 L 59.601562 23.339844 L 25.613281 35.203125 Z M 16.21875 8.296875 " clip-rule="nonzero"/></clipPath><clipPath id="8345af5483"><path d="M 16.21875 8.296875 L 50.207031 -3.566406 L 59.601562 23.339844 L 25.613281 35.203125 Z M 16.21875 8.296875 " clip-rule="nonzero"/></clipPath><clipPath id="8b2ec3312f"><path d="M 41 0 L 45 0 L 45 3 L 41 3 Z M 41 0 " clip-rule="nonzero"/></clipPath><clipPath id="3535c11445"><path d="M 16.21875 8.296875 L 50.207031 -3.566406 L 59.601562 23.339844 L 25.613281 35.203125 Z M 16.21875 8.296875 " clip-rule="nonzero"/></clipPath><clipPath id="13656e5767"><path d="M 16.21875 8.296875 L 50.207031 -3.566406 L 59.601562 23.339844 L 25.613281 35.203125 Z M 16.21875 8.296875 " clip-rule="nonzero"/></clipPath><clipPath id="6bfd24f9f3"><path d="M 47 0 L 51 0 L 51 1 L 47 1 Z M 47 0 " clip-rule="nonzero"/></clipPath><clipPath id="41d5e317da"><path d="M 16.21875 8.296875 L 50.207031 -3.566406 L 59.601562 23.339844 L 25.613281 35.203125 Z M 16.21875 8.296875 " clip-rule="nonzero"/></clipPath><clipPath id="78cd03e640"><path d="M 16.21875 8.296875 L 50.207031 -3.566406 L 59.601562 23.339844 L 25.613281 35.203125 Z M 16.21875 8.296875 " clip-rule="nonzero"/></clipPath><clipPath id="d0f0922f97"><path d="M 18 13 L 23 13 L 23 18 L 18 18 Z M 18 13 " clip-rule="nonzero"/></clipPath><clipPath id="e6b12bc972"><path d="M 16.21875 8.296875 L 50.207031 -3.566406 L 59.601562 23.339844 L 25.613281 35.203125 Z M 16.21875 8.296875 " clip-rule="nonzero"/></clipPath><clipPath id="e0ca9721db"><path d="M 16.21875 8.296875 L 50.207031 -3.566406 L 59.601562 23.339844 L 25.613281 35.203125 Z M 16.21875 8.296875 " clip-rule="nonzero"/></clipPath><clipPath id="918deb7073"><path d="M 24 11 L 29 11 L 29 15 L 24 15 Z M 24 11 " clip-rule="nonzero"/></clipPath><clipPath id="0f68db5c80"><path d="M 16.21875 8.296875 L 50.207031 -3.566406 L 59.601562 23.339844 L 25.613281 35.203125 Z M 16.21875 8.296875 " clip-rule="nonzero"/></clipPath><clipPath id="1541754c37"><path d="M 16.21875 8.296875 L 50.207031 -3.566406 L 59.601562 23.339844 L 25.613281 35.203125 Z M 16.21875 8.296875 " clip-rule="nonzero"/></clipPath><clipPath id="4926650f5e"><path d="M 30 9 L 35 9 L 35 13 L 30 13 Z M 30 9 " clip-rule="nonzero"/></clipPath><clipPath id="ae07ecccf6"><path d="M 16.21875 8.296875 L 50.207031 -3.566406 L 59.601562 23.339844 L 25.613281 35.203125 Z M 16.21875 8.296875 " clip-rule="nonzero"/></clipPath><clipPath id="a684e5acf5"><path d="M 16.21875 8.296875 L 50.207031 -3.566406 L 59.601562 23.339844 L 25.613281 35.203125 Z M 16.21875 8.296875 " clip-rule="nonzero"/></clipPath><clipPath id="4dbb7cc715"><path d="M 37 7 L 41 7 L 41 11 L 37 11 Z M 37 7 " clip-rule="nonzero"/></clipPath><clipPath id="27ca3dfc03"><path d="M 16.21875 8.296875 L 50.207031 -3.566406 L 59.601562 23.339844 L 25.613281 35.203125 Z M 16.21875 8.296875 " clip-rule="nonzero"/></clipPath><clipPath id="ab682c43c6"><path d="M 16.21875 8.296875 L 50.207031 -3.566406 L 59.601562 23.339844 L 25.613281 35.203125 Z M 16.21875 8.296875 " clip-rule="nonzero"/></clipPath><clipPath id="ac5a68ca09"><path d="M 43 4 L 47 4 L 47 9 L 43 9 Z M 43 4 " clip-rule="nonzero"/></clipPath><clipPath id="4b57ec334f"><path d="M 16.21875 8.296875 L 50.207031 -3.566406 L 59.601562 23.339844 L 25.613281 35.203125 Z M 16.21875 8.296875 " clip-rule="nonzero"/></clipPath><clipPath id="ae2c18a5c5"><path d="M 16.21875 8.296875 L 50.207031 -3.566406 L 59.601562 23.339844 L 25.613281 35.203125 Z M 16.21875 8.296875 " clip-rule="nonzero"/></clipPath><clipPath id="50fe350ef7"><path d="M 49 2 L 52.003906 2 L 52.003906 7 L 49 7 Z M 49 2 " clip-rule="nonzero"/></clipPath><clipPath id="97ec3201db"><path d="M 16.21875 8.296875 L 50.207031 -3.566406 L 59.601562 23.339844 L 25.613281 35.203125 Z M 16.21875 8.296875 " clip-rule="nonzero"/></clipPath><clipPath id="85b2ff09f1"><path d="M 16.21875 8.296875 L 50.207031 -3.566406 L 59.601562 23.339844 L 25.613281 35.203125 Z M 16.21875 8.296875 " clip-rule="nonzero"/></clipPath><clipPath id="1011387153"><path d="M 20 19 L 25 19 L 25 23 L 20 23 Z M 20 19 " clip-rule="nonzero"/></clipPath><clipPath id="7e55889962"><path d="M 16.21875 8.296875 L 50.207031 -3.566406 L 59.601562 23.339844 L 25.613281 35.203125 Z M 16.21875 8.296875 " clip-rule="nonzero"/></clipPath><clipPath id="fc39aff601"><path d="M 16.21875 8.296875 L 50.207031 -3.566406 L 59.601562 23.339844 L 25.613281 35.203125 Z M 16.21875 8.296875 " clip-rule="nonzero"/></clipPath><clipPath id="e551dcc9ba"><path d="M 26 17 L 31 17 L 31 21 L 26 21 Z M 26 17 " clip-rule="nonzero"/></clipPath><clipPath id="557b257a2f"><path d="M 16.21875 8.296875 L 50.207031 -3.566406 L 59.601562 23.339844 L 25.613281 35.203125 Z M 16.21875 8.296875 " clip-rule="nonzero"/></clipPath><clipPath id="d2395ac380"><path d="M 16.21875 8.296875 L 50.207031 -3.566406 L 59.601562 23.339844 L 25.613281 35.203125 Z M 16.21875 8.296875 " clip-rule="nonzero"/></clipPath><clipPath id="91d6a4d7ff"><path d="M 33 15 L 37 15 L 37 19 L 33 19 Z M 33 15 " clip-rule="nonzero"/></clipPath><clipPath id="47751f82f0"><path d="M 16.21875 8.296875 L 50.207031 -3.566406 L 59.601562 23.339844 L 25.613281 35.203125 Z M 16.21875 8.296875 " clip-rule="nonzero"/></clipPath><clipPath id="c37a56ed68"><path d="M 16.21875 8.296875 L 50.207031 -3.566406 L 59.601562 23.339844 L 25.613281 35.203125 Z M 16.21875 8.296875 " clip-rule="nonzero"/></clipPath><clipPath id="f2c349f309"><path d="M 39 12 L 43 12 L 43 17 L 39 17 Z M 39 12 " clip-rule="nonzero"/></clipPath><clipPath id="118c7bd18b"><path d="M 16.21875 8.296875 L 50.207031 -3.566406 L 59.601562 23.339844 L 25.613281 35.203125 Z M 16.21875 8.296875 " clip-rule="nonzero"/></clipPath><clipPath id="250f057a0c"><path d="M 16.21875 8.296875 L 50.207031 -3.566406 L 59.601562 23.339844 L 25.613281 35.203125 Z M 16.21875 8.296875 " clip-rule="nonzero"/></clipPath><clipPath id="3026c4b7dd"><path d="M 45 10 L 49 10 L 49 15 L 45 15 Z M 45 10 " clip-rule="nonzero"/></clipPath><clipPath id="8591302386"><path d="M 16.21875 8.296875 L 50.207031 -3.566406 L 59.601562 23.339844 L 25.613281 35.203125 Z M 16.21875 8.296875 " clip-rule="nonzero"/></clipPath><clipPath id="7a7a15828c"><path d="M 16.21875 8.296875 L 50.207031 -3.566406 L 59.601562 23.339844 L 25.613281 35.203125 Z M 16.21875 8.296875 " clip-rule="nonzero"/></clipPath><clipPath id="bb4a2ea5f4"><path d="M 51 8 L 52.003906 8 L 52.003906 13 L 51 13 Z M 51 8 " clip-rule="nonzero"/></clipPath><clipPath id="39c05335a1"><path d="M 16.21875 8.296875 L 50.207031 -3.566406 L 59.601562 23.339844 L 25.613281 35.203125 Z M 16.21875 8.296875 " clip-rule="nonzero"/></clipPath><clipPath id="1b97359dd7"><path d="M 16.21875 8.296875 L 50.207031 -3.566406 L 59.601562 23.339844 L 25.613281 35.203125 Z M 16.21875 8.296875 " clip-rule="nonzero"/></clipPath><clipPath id="1b8017dc99"><path d="M 22 25 L 27 25 L 27 29 L 22 29 Z M 22 25 " clip-rule="nonzero"/></clipPath><clipPath id="448c208c11"><path d="M 16.21875 8.296875 L 50.207031 -3.566406 L 59.601562 23.339844 L 25.613281 35.203125 Z M 16.21875 8.296875 " clip-rule="nonzero"/></clipPath><clipPath id="162d388cf2"><path d="M 16.21875 8.296875 L 50.207031 -3.566406 L 59.601562 23.339844 L 25.613281 35.203125 Z M 16.21875 8.296875 " clip-rule="nonzero"/></clipPath><clipPath id="9585190793"><path d="M 28 23 L 33 23 L 33 27 L 28 27 Z M 28 23 " clip-rule="nonzero"/></clipPath><clipPath id="26267c5730"><path d="M 16.21875 8.296875 L 50.207031 -3.566406 L 59.601562 23.339844 L 25.613281 35.203125 Z M 16.21875 8.296875 " clip-rule="nonzero"/></clipPath><clipPath id="a286a5080b"><path d="M 16.21875 8.296875 L 50.207031 -3.566406 L 59.601562 23.339844 L 25.613281 35.203125 Z M 16.21875 8.296875 " clip-rule="nonzero"/></clipPath><clipPath id="44ac4f1ab1"><path d="M 35 20 L 39 20 L 39 25 L 35 25 Z M 35 20 " clip-rule="nonzero"/></clipPath><clipPath id="cce8e678a3"><path d="M 16.21875 8.296875 L 50.207031 -3.566406 L 59.601562 23.339844 L 25.613281 35.203125 Z M 16.21875 8.296875 " clip-rule="nonzero"/></clipPath><clipPath id="072573e2a0"><path d="M 16.21875 8.296875 L 50.207031 -3.566406 L 59.601562 23.339844 L 25.613281 35.203125 Z M 16.21875 8.296875 " clip-rule="nonzero"/></clipPath><clipPath id="3871aa6530"><path d="M 41 18 L 45 18 L 45 23 L 41 23 Z M 41 18 " clip-rule="nonzero"/></clipPath><clipPath id="1f9cb8445d"><path d="M 16.21875 8.296875 L 50.207031 -3.566406 L 59.601562 23.339844 L 25.613281 35.203125 Z M 16.21875 8.296875 " clip-rule="nonzero"/></clipPath><clipPath id="7d0ba16cb1"><path d="M 16.21875 8.296875 L 50.207031 -3.566406 L 59.601562 23.339844 L 25.613281 35.203125 Z M 16.21875 8.296875 " clip-rule="nonzero"/></clipPath><clipPath id="8fa5d50ef9"><path d="M 47 16 L 51 16 L 51 21 L 47 21 Z M 47 16 " clip-rule="nonzero"/></clipPath><clipPath id="b234d46f3e"><path d="M 16.21875 8.296875 L 50.207031 -3.566406 L 59.601562 23.339844 L 25.613281 35.203125 Z M 16.21875 8.296875 " clip-rule="nonzero"/></clipPath><clipPath id="8bc7dfdbb4"><path d="M 16.21875 8.296875 L 50.207031 -3.566406 L 59.601562 23.339844 L 25.613281 35.203125 Z M 16.21875 8.296875 " clip-rule="nonzero"/></clipPath><clipPath id="4fb3370f68"><path d="M 24 31 L 29 31 L 29 35 L 24 35 Z M 24 31 " clip-rule="nonzero"/></clipPath><clipPath id="b1fde414d2"><path d="M 16.21875 8.296875 L 50.207031 -3.566406 L 59.601562 23.339844 L 25.613281 35.203125 Z M 16.21875 8.296875 " clip-rule="nonzero"/></clipPath><clipPath id="f1f7c71115"><path d="M 16.21875 8.296875 L 50.207031 -3.566406 L 59.601562 23.339844 L 25.613281 35.203125 Z M 16.21875 8.296875 " clip-rule="nonzero"/></clipPath><clipPath id="7fff0f2d99"><path d="M 31 28 L 35 28 L 35 33 L 31 33 Z M 31 28 " clip-rule="nonzero"/></clipPath><clipPath id="2491d25cdd"><path d="M 16.21875 8.296875 L 50.207031 -3.566406 L 59.601562 23.339844 L 25.613281 35.203125 Z M 16.21875 8.296875 " clip-rule="nonzero"/></clipPath><clipPath id="4f2ae79a6a"><path d="M 16.21875 8.296875 L 50.207031 -3.566406 L 59.601562 23.339844 L 25.613281 35.203125 Z M 16.21875 8.296875 " clip-rule="nonzero"/></clipPath><clipPath id="20b5b90f2d"><path d="M 37 26 L 41 26 L 41 31 L 37 31 Z M 37 26 " clip-rule="nonzero"/></clipPath><clipPath id="8cae54e833"><path d="M 16.21875 8.296875 L 50.207031 -3.566406 L 59.601562 23.339844 L 25.613281 35.203125 Z M 16.21875 8.296875 " clip-rule="nonzero"/></clipPath><clipPath id="8451aae52e"><path d="M 16.21875 8.296875 L 50.207031 -3.566406 L 59.601562 23.339844 L 25.613281 35.203125 Z M 16.21875 8.296875 " clip-rule="nonzero"/></clipPath><clipPath id="f519629117"><path d="M 43 24 L 47 24 L 47 29 L 43 29 Z M 43 24 " clip-rule="nonzero"/></clipPath><clipPath id="0a6d04d676"><path d="M 16.21875 8.296875 L 50.207031 -3.566406 L 59.601562 23.339844 L 25.613281 35.203125 Z M 16.21875 8.296875 " clip-rule="nonzero"/></clipPath><clipPath id="6aa450eec7"><path d="M 16.21875 8.296875 L 50.207031 -3.566406 L 59.601562 23.339844 L 25.613281 35.203125 Z M 16.21875 8.296875 " clip-rule="nonzero"/></clipPath><clipPath id="047f25c2ec"><path d="M 49 22 L 52.003906 22 L 52.003906 27 L 49 27 Z M 49 22 " clip-rule="nonzero"/></clipPath><clipPath id="dab8da0271"><path d="M 16.21875 8.296875 L 50.207031 -3.566406 L 59.601562 23.339844 L 25.613281 35.203125 Z M 16.21875 8.296875 " clip-rule="nonzero"/></clipPath><clipPath id="76917c7986"><path d="M 16.21875 8.296875 L 50.207031 -3.566406 L 59.601562 23.339844 L 25.613281 35.203125 Z M 16.21875 8.296875 " clip-rule="nonzero"/></clipPath><clipPath id="2c4e6d895e"><path d="M 18 33 L 23 33 L 23 37 L 18 37 Z M 18 33 " clip-rule="nonzero"/></clipPath><clipPath id="0e5d2fc5e7"><path d="M 18.152344 33.722656 L 52.144531 21.859375 L 61.535156 48.765625 L 27.546875 60.628906 Z M 18.152344 33.722656 " clip-rule="nonzero"/></clipPath><clipPath id="6cc4354b80"><path d="M 18.152344 33.722656 L 52.144531 21.859375 L 61.535156 48.765625 L 27.546875 60.628906 Z M 18.152344 33.722656 " clip-rule="nonzero"/></clipPath><clipPath id="c616555a25"><path d="M 24 30 L 29 30 L 29 35 L 24 35 Z M 24 30 " clip-rule="nonzero"/></clipPath><clipPath id="00edc8c51b"><path d="M 18.152344 33.722656 L 52.144531 21.859375 L 61.535156 48.765625 L 27.546875 60.628906 Z M 18.152344 33.722656 " clip-rule="nonzero"/></clipPath><clipPath id="6176ae1537"><path d="M 18.152344 33.722656 L 52.144531 21.859375 L 61.535156 48.765625 L 27.546875 60.628906 Z M 18.152344 33.722656 " clip-rule="nonzero"/></clipPath><clipPath id="7a2000cceb"><path d="M 30 28 L 35 28 L 35 33 L 30 33 Z M 30 28 " clip-rule="nonzero"/></clipPath><clipPath id="035ac3ba5c"><path d="M 18.152344 33.722656 L 52.144531 21.859375 L 61.535156 48.765625 L 27.546875 60.628906 Z M 18.152344 33.722656 " clip-rule="nonzero"/></clipPath><clipPath id="ebafef1811"><path d="M 18.152344 33.722656 L 52.144531 21.859375 L 61.535156 48.765625 L 27.546875 60.628906 Z M 18.152344 33.722656 " clip-rule="nonzero"/></clipPath><clipPath id="b87511d183"><path d="M 36 26 L 41 26 L 41 31 L 36 31 Z M 36 26 " clip-rule="nonzero"/></clipPath><clipPath id="4d1a6cfd2b"><path d="M 18.152344 33.722656 L 52.144531 21.859375 L 61.535156 48.765625 L 27.546875 60.628906 Z M 18.152344 33.722656 " clip-rule="nonzero"/></clipPath><clipPath id="fe2436d0d0"><path d="M 18.152344 33.722656 L 52.144531 21.859375 L 61.535156 48.765625 L 27.546875 60.628906 Z M 18.152344 33.722656 " clip-rule="nonzero"/></clipPath><clipPath id="982bbb7e8b"><path d="M 43 24 L 47 24 L 47 29 L 43 29 Z M 43 24 " clip-rule="nonzero"/></clipPath><clipPath id="8dbfe92c91"><path d="M 18.152344 33.722656 L 52.144531 21.859375 L 61.535156 48.765625 L 27.546875 60.628906 Z M 18.152344 33.722656 " clip-rule="nonzero"/></clipPath><clipPath id="918341d69d"><path d="M 18.152344 33.722656 L 52.144531 21.859375 L 61.535156 48.765625 L 27.546875 60.628906 Z M 18.152344 33.722656 " clip-rule="nonzero"/></clipPath><clipPath id="a7526be8dd"><path d="M 49 22 L 52.003906 22 L 52.003906 27 L 49 27 Z M 49 22 " clip-rule="nonzero"/></clipPath><clipPath id="22ee1bd7fb"><path d="M 18.152344 33.722656 L 52.144531 21.859375 L 61.535156 48.765625 L 27.546875 60.628906 Z M 18.152344 33.722656 " clip-rule="nonzero"/></clipPath><clipPath id="aba8624ef4"><path d="M 18.152344 33.722656 L 52.144531 21.859375 L 61.535156 48.765625 L 27.546875 60.628906 Z M 18.152344 33.722656 " clip-rule="nonzero"/></clipPath><clipPath id="1e0c7fee28"><path d="M 20 38 L 25 38 L 25 43 L 20 43 Z M 20 38 " clip-rule="nonzero"/></clipPath><clipPath id="6a4f688a63"><path d="M 18.152344 33.722656 L 52.144531 21.859375 L 61.535156 48.765625 L 27.546875 60.628906 Z M 18.152344 33.722656 " clip-rule="nonzero"/></clipPath><clipPath id="c0b0850b7c"><path d="M 18.152344 33.722656 L 52.144531 21.859375 L 61.535156 48.765625 L 27.546875 60.628906 Z M 18.152344 33.722656 " clip-rule="nonzero"/></clipPath><clipPath id="f3a763ecc5"><path d="M 26 36 L 31 36 L 31 41 L 26 41 Z M 26 36 " clip-rule="nonzero"/></clipPath><clipPath id="98e2282c37"><path d="M 18.152344 33.722656 L 52.144531 21.859375 L 61.535156 48.765625 L 27.546875 60.628906 Z M 18.152344 33.722656 " clip-rule="nonzero"/></clipPath><clipPath id="92165a323a"><path d="M 18.152344 33.722656 L 52.144531 21.859375 L 61.535156 48.765625 L 27.546875 60.628906 Z M 18.152344 33.722656 " clip-rule="nonzero"/></clipPath><clipPath id="75550e9503"><path d="M 32 34 L 37 34 L 37 39 L 32 39 Z M 32 34 " clip-rule="nonzero"/></clipPath><clipPath id="e4511b26ad"><path d="M 18.152344 33.722656 L 52.144531 21.859375 L 61.535156 48.765625 L 27.546875 60.628906 Z M 18.152344 33.722656 " clip-rule="nonzero"/></clipPath><clipPath id="154df17b4e"><path d="M 18.152344 33.722656 L 52.144531 21.859375 L 61.535156 48.765625 L 27.546875 60.628906 Z M 18.152344 33.722656 " clip-rule="nonzero"/></clipPath><clipPath id="69de40538e"><path d="M 39 32 L 43 32 L 43 37 L 39 37 Z M 39 32 " clip-rule="nonzero"/></clipPath><clipPath id="869fba7d8d"><path d="M 18.152344 33.722656 L 52.144531 21.859375 L 61.535156 48.765625 L 27.546875 60.628906 Z M 18.152344 33.722656 " clip-rule="nonzero"/></clipPath><clipPath id="1e64aea050"><path d="M 18.152344 33.722656 L 52.144531 21.859375 L 61.535156 48.765625 L 27.546875 60.628906 Z M 18.152344 33.722656 " clip-rule="nonzero"/></clipPath><clipPath id="5bab1da088"><path d="M 45 30 L 49 30 L 49 35 L 45 35 Z M 45 30 " clip-rule="nonzero"/></clipPath><clipPath id="ec850670a0"><path d="M 18.152344 33.722656 L 52.144531 21.859375 L 61.535156 48.765625 L 27.546875 60.628906 Z M 18.152344 33.722656 " clip-rule="nonzero"/></clipPath><clipPath id="31afd69069"><path d="M 18.152344 33.722656 L 52.144531 21.859375 L 61.535156 48.765625 L 27.546875 60.628906 Z M 18.152344 33.722656 " clip-rule="nonzero"/></clipPath><clipPath id="5a599afe6c"><path d="M 51 28 L 52.003906 28 L 52.003906 32 L 51 32 Z M 51 28 " clip-rule="nonzero"/></clipPath><clipPath id="cd1d02b635"><path d="M 18.152344 33.722656 L 52.144531 21.859375 L 61.535156 48.765625 L 27.546875 60.628906 Z M 18.152344 33.722656 " clip-rule="nonzero"/></clipPath><clipPath id="2cdfeba0c9"><path d="M 18.152344 33.722656 L 52.144531 21.859375 L 61.535156 48.765625 L 27.546875 60.628906 Z M 18.152344 33.722656 " clip-rule="nonzero"/></clipPath><clipPath id="610a37ae72"><path d="M 22 44 L 27 44 L 27 49 L 22 49 Z M 22 44 " clip-rule="nonzero"/></clipPath><clipPath id="8dfc3b8c3f"><path d="M 18.152344 33.722656 L 52.144531 21.859375 L 61.535156 48.765625 L 27.546875 60.628906 Z M 18.152344 33.722656 " clip-rule="nonzero"/></clipPath><clipPath id="c28d1970cb"><path d="M 18.152344 33.722656 L 52.144531 21.859375 L 61.535156 48.765625 L 27.546875 60.628906 Z M 18.152344 33.722656 " clip-rule="nonzero"/></clipPath><clipPath id="310f89e71a"><path d="M 28 42 L 33 42 L 33 47 L 28 47 Z M 28 42 " clip-rule="nonzero"/></clipPath><clipPath id="93d0171a1d"><path d="M 18.152344 33.722656 L 52.144531 21.859375 L 61.535156 48.765625 L 27.546875 60.628906 Z M 18.152344 33.722656 " clip-rule="nonzero"/></clipPath><clipPath id="6e82ace8fb"><path d="M 18.152344 33.722656 L 52.144531 21.859375 L 61.535156 48.765625 L 27.546875 60.628906 Z M 18.152344 33.722656 " clip-rule="nonzero"/></clipPath><clipPath id="166038510b"><path d="M 34 40 L 39 40 L 39 45 L 34 45 Z M 34 40 " clip-rule="nonzero"/></clipPath><clipPath id="f8d5a0c1ab"><path d="M 18.152344 33.722656 L 52.144531 21.859375 L 61.535156 48.765625 L 27.546875 60.628906 Z M 18.152344 33.722656 " clip-rule="nonzero"/></clipPath><clipPath id="90f410c53c"><path d="M 18.152344 33.722656 L 52.144531 21.859375 L 61.535156 48.765625 L 27.546875 60.628906 Z M 18.152344 33.722656 " clip-rule="nonzero"/></clipPath><clipPath id="6c37a64baf"><path d="M 41 38 L 45 38 L 45 42 L 41 42 Z M 41 38 " clip-rule="nonzero"/></clipPath><clipPath id="c42a97a7d9"><path d="M 18.152344 33.722656 L 52.144531 21.859375 L 61.535156 48.765625 L 27.546875 60.628906 Z M 18.152344 33.722656 " clip-rule="nonzero"/></clipPath><clipPath id="8ea0e787e9"><path d="M 18.152344 33.722656 L 52.144531 21.859375 L 61.535156 48.765625 L 27.546875 60.628906 Z M 18.152344 33.722656 " clip-rule="nonzero"/></clipPath><clipPath id="57af065ced"><path d="M 47 36 L 51 36 L 51 40 L 47 40 Z M 47 36 " clip-rule="nonzero"/></clipPath><clipPath id="57c6a398f3"><path d="M 18.152344 33.722656 L 52.144531 21.859375 L 61.535156 48.765625 L 27.546875 60.628906 Z M 18.152344 33.722656 " clip-rule="nonzero"/></clipPath><clipPath id="a980d18970"><path d="M 18.152344 33.722656 L 52.144531 21.859375 L 61.535156 48.765625 L 27.546875 60.628906 Z M 18.152344 33.722656 " clip-rule="nonzero"/></clipPath><clipPath id="86cdba79e3"><path d="M 24 50 L 29 50 L 29 52.003906 L 24 52.003906 Z M 24 50 " clip-rule="nonzero"/></clipPath><clipPath id="af7f3d548b"><path d="M 18.152344 33.722656 L 52.144531 21.859375 L 61.535156 48.765625 L 27.546875 60.628906 Z M 18.152344 33.722656 " clip-rule="nonzero"/></clipPath><clipPath id="4c60584a37"><path d="M 18.152344 33.722656 L 52.144531 21.859375 L 61.535156 48.765625 L 27.546875 60.628906 Z M 18.152344 33.722656 " clip-rule="nonzero"/></clipPath><clipPath id="1b7ccc3988"><path d="M 30 48 L 35 48 L 35 52.003906 L 30 52.003906 Z M 30 48 " clip-rule="nonzero"/></clipPath><clipPath id="441fa337c5"><path d="M 18.152344 33.722656 L 52.144531 21.859375 L 61.535156 48.765625 L 27.546875 60.628906 Z M 18.152344 33.722656 " clip-rule="nonzero"/></clipPath><clipPath id="06e84066af"><path d="M 18.152344 33.722656 L 52.144531 21.859375 L 61.535156 48.765625 L 27.546875 60.628906 Z M 18.152344 33.722656 " clip-rule="nonzero"/></clipPath><clipPath id="94fff72efa"><path d="M 37 46 L 41 46 L 41 50 L 37 50 Z M 37 46 " clip-rule="nonzero"/></clipPath><clipPath id="7772e1f705"><path d="M 18.152344 33.722656 L 52.144531 21.859375 L 61.535156 48.765625 L 27.546875 60.628906 Z M 18.152344 33.722656 " clip-rule="nonzero"/></clipPath><clipPath id="d5159b02a2"><path d="M 18.152344 33.722656 L 52.144531 21.859375 L 61.535156 48.765625 L 27.546875 60.628906 Z M 18.152344 33.722656 " clip-rule="nonzero"/></clipPath><clipPath id="413cd12b98"><path d="M 43 44 L 47 44 L 47 48 L 43 48 Z M 43 44 " clip-rule="nonzero"/></clipPath><clipPath id="754f5dce17"><path d="M 18.152344 33.722656 L 52.144531 21.859375 L 61.535156 48.765625 L 27.546875 60.628906 Z M 18.152344 33.722656 " clip-rule="nonzero"/></clipPath><clipPath id="960420e0d7"><path d="M 18.152344 33.722656 L 52.144531 21.859375 L 61.535156 48.765625 L 27.546875 60.628906 Z M 18.152344 33.722656 " clip-rule="nonzero"/></clipPath><clipPath id="07b4787e1f"><path d="M 49 42 L 52.003906 42 L 52.003906 46 L 49 46 Z M 49 42 " clip-rule="nonzero"/></clipPath><clipPath id="43aa947f0f"><path d="M 18.152344 33.722656 L 52.144531 21.859375 L 61.535156 48.765625 L 27.546875 60.628906 Z M 18.152344 33.722656 " clip-rule="nonzero"/></clipPath><clipPath id="d2b6679348"><path d="M 18.152344 33.722656 L 52.144531 21.859375 L 61.535156 48.765625 L 27.546875 60.628906 Z M 18.152344 33.722656 " clip-rule="nonzero"/></clipPath><clipPath id="58d9da29dd"><path d="M 39 52 L 43 52 L 43 52.003906 L 39 52.003906 Z M 39 52 " clip-rule="nonzero"/></clipPath><clipPath id="233e7ab79d"><path d="M 18.152344 33.722656 L 52.144531 21.859375 L 61.535156 48.765625 L 27.546875 60.628906 Z M 18.152344 33.722656 " clip-rule="nonzero"/></clipPath><clipPath id="e68b2223c4"><path d="M 18.152344 33.722656 L 52.144531 21.859375 L 61.535156 48.765625 L 27.546875 60.628906 Z M 18.152344 33.722656 " clip-rule="nonzero"/></clipPath><clipPath id="3abdefdc7f"><path d="M 45 50 L 49 50 L 49 52.003906 L 45 52.003906 Z M 45 50 " clip-rule="nonzero"/></clipPath><clipPath id="cb4d6166d2"><path d="M 18.152344 33.722656 L 52.144531 21.859375 L 61.535156 48.765625 L 27.546875 60.628906 Z M 18.152344 33.722656 " clip-rule="nonzero"/></clipPath><clipPath id="26a623c3fa"><path d="M 18.152344 33.722656 L 52.144531 21.859375 L 61.535156 48.765625 L 27.546875 60.628906 Z M 18.152344 33.722656 " clip-rule="nonzero"/></clipPath><clipPath id="3d78a8d0b7"><path d="M 51 47 L 52.003906 47 L 52.003906 52 L 51 52 Z M 51 47 " clip-rule="nonzero"/></clipPath><clipPath id="4f6ab2ccf7"><path d="M 18.152344 33.722656 L 52.144531 21.859375 L 61.535156 48.765625 L 27.546875 60.628906 Z M 18.152344 33.722656 " clip-rule="nonzero"/></clipPath><clipPath id="87123ae000"><path d="M 18.152344 33.722656 L 52.144531 21.859375 L 61.535156 48.765625 L 27.546875 60.628906 Z M 18.152344 33.722656 " clip-rule="nonzero"/></clipPath></defs><g clip-path="url(#843667e35e)"><g clip-path="url(#bd6e2f7a5a)"><g clip-path="url(#1f6232d6b2)"><path fill="#ff1616" d="M 20.296875 8.660156 L 18.703125 9.21875 L 18.15625 7.648438 L 17.808594 7.769531 L 18.355469 9.339844 L 16.765625 9.894531 L 16.882812 10.234375 L 18.476562 9.679688 L 19.023438 11.253906 L 19.371094 11.132812 L 18.820312 9.558594 L 20.417969 9 Z M 20.296875 8.660156 " fill-opacity="1" fill-rule="nonzero"/></g></g></g><g clip-path="url(#1990d72142)"><g clip-path="url(#30c4a9af0c)"><g clip-path="url(#6635068b09)"><path fill="#ff1616" d="M 26.394531 6.535156 L 24.800781 7.089844 L 24.253906 5.519531 L 23.902344 5.644531 L 24.453125 7.210938 L 22.859375 7.765625 L 22.980469 8.109375 L 24.570312 7.550781 L 25.121094 9.125 L 25.46875 9.003906 L 24.921875 7.429688 L 26.511719 6.875 Z M 26.394531 6.535156 " fill-opacity="1" fill-rule="nonzero"/></g></g></g><g clip-path="url(#9fed8a6243)"><g clip-path="url(#6c9460516f)"><g clip-path="url(#44336ceac3)"><path fill="#ff1616" d="M 32.488281 4.40625 L 30.898438 4.960938 L 30.351562 3.394531 L 30 3.515625 L 30.546875 5.082031 L 28.957031 5.640625 L 29.074219 5.980469 L 30.664062 5.425781 L 31.214844 6.996094 L 31.566406 6.875 L 31.015625 5.300781 L 32.609375 4.746094 Z M 32.488281 4.40625 " fill-opacity="1" fill-rule="nonzero"/></g></g></g><g clip-path="url(#20282668cc)"><g clip-path="url(#72097c5441)"><g clip-path="url(#8345af5483)"><path fill="#ff1616" d="M 38.585938 2.277344 L 36.992188 2.832031 L 36.445312 1.265625 L 36.09375 1.386719 L 36.640625 2.957031 L 35.050781 3.511719 L 35.171875 3.851562 L 36.761719 3.296875 L 37.308594 4.871094 L 37.660156 4.746094 L 37.113281 3.175781 L 38.703125 2.617188 Z M 38.585938 2.277344 " fill-opacity="1" fill-rule="nonzero"/></g></g></g><g clip-path="url(#8b2ec3312f)"><g clip-path="url(#3535c11445)"><g clip-path="url(#13656e5767)"><path fill="#ff1616" d="M 44.679688 0.152344 L 43.089844 0.707031 L 42.542969 -0.863281 L 42.191406 -0.738281 L 42.738281 0.828125 L 41.144531 1.382812 L 41.265625 1.726562 L 42.855469 1.167969 L 43.40625 2.742188 L 43.757812 2.621094 L 43.207031 1.046875 L 44.796875 0.492188 Z M 44.679688 0.152344 " fill-opacity="1" fill-rule="nonzero"/></g></g></g><g clip-path="url(#6bfd24f9f3)"><g clip-path="url(#41d5e317da)"><g clip-path="url(#78cd03e640)"><path fill="#ff1616" d="M 50.773438 -1.976562 L 49.183594 -1.421875 L 48.636719 -2.988281 L 48.289062 -2.867188 L 48.835938 -1.300781 L 47.242188 -0.742188 L 47.359375 -0.402344 L 48.957031 -0.960938 L 49.503906 0.613281 L 49.851562 0.492188 L 49.300781 -1.082031 L 50.894531 -1.636719 Z M 50.773438 -1.976562 " fill-opacity="1" fill-rule="nonzero"/></g></g></g><g clip-path="url(#d0f0922f97)"><g clip-path="url(#e6b12bc972)"><g clip-path="url(#e0ca9721db)"><path fill="#ff1616" d="M 22.339844 14.503906 L 20.742188 15.0625 L 20.195312 13.492188 L 19.847656 13.613281 L 20.394531 15.183594 L 18.804688 15.738281 L 18.925781 16.082031 L 20.515625 15.527344 L 21.0625 17.097656 L 21.410156 16.976562 L 20.863281 15.40625 L 22.457031 14.851562 Z M 22.339844 14.503906 " fill-opacity="1" fill-rule="nonzero"/></g></g></g><g clip-path="url(#918deb7073)"><g clip-path="url(#0f68db5c80)"><g clip-path="url(#1541754c37)"><path fill="#ff1616" d="M 28.433594 12.375 L 26.84375 12.933594 L 26.296875 11.363281 L 25.945312 11.488281 L 26.492188 13.054688 L 24.898438 13.609375 L 25.019531 13.957031 L 26.613281 13.402344 L 27.160156 14.96875 L 27.511719 14.847656 L 26.964844 13.277344 L 28.554688 12.722656 Z M 28.433594 12.375 " fill-opacity="1" fill-rule="nonzero"/></g></g></g><g clip-path="url(#4926650f5e)"><g clip-path="url(#ae07ecccf6)"><g clip-path="url(#a684e5acf5)"><path fill="#ff1616" d="M 34.527344 10.25 L 32.9375 10.804688 L 32.390625 9.238281 L 32.039062 9.359375 L 32.585938 10.925781 L 30.996094 11.480469 L 31.117188 11.828125 L 32.707031 11.273438 L 33.253906 12.839844 L 33.605469 12.71875 L 33.058594 11.152344 L 34.648438 10.59375 Z M 34.527344 10.25 " fill-opacity="1" fill-rule="nonzero"/></g></g></g><g clip-path="url(#4dbb7cc715)"><g clip-path="url(#27ca3dfc03)"><g clip-path="url(#ab682c43c6)"><path fill="#ff1616" d="M 40.625 8.121094 L 39.03125 8.675781 L 38.484375 7.109375 L 38.132812 7.230469 L 38.679688 8.800781 L 37.089844 9.355469 L 37.210938 9.699219 L 38.800781 9.144531 L 39.351562 10.714844 L 39.699219 10.589844 L 39.152344 9.023438 L 40.746094 8.46875 Z M 40.625 8.121094 " fill-opacity="1" fill-rule="nonzero"/></g></g></g><g clip-path="url(#ac5a68ca09)"><g clip-path="url(#4b57ec334f)"><g clip-path="url(#ae2c18a5c5)"><path fill="#ff1616" d="M 46.71875 5.992188 L 45.128906 6.550781 L 44.582031 4.980469 L 44.230469 5.105469 L 44.777344 6.671875 L 43.1875 7.226562 L 43.308594 7.574219 L 44.898438 7.019531 L 45.445312 8.585938 L 45.796875 8.464844 L 45.25 6.894531 L 46.839844 6.339844 Z M 46.71875 5.992188 " fill-opacity="1" fill-rule="nonzero"/></g></g></g><g clip-path="url(#50fe350ef7)"><g clip-path="url(#97ec3201db)"><g clip-path="url(#85b2ff09f1)"><path fill="#ff1616" d="M 52.8125 3.867188 L 51.222656 4.421875 L 50.675781 2.855469 L 50.328125 2.972656 L 50.878906 4.542969 L 49.28125 5.097656 L 49.402344 5.445312 L 51 4.886719 L 51.546875 6.457031 L 51.890625 6.335938 L 51.34375 4.765625 L 52.933594 4.210938 Z M 52.8125 3.867188 " fill-opacity="1" fill-rule="nonzero"/></g></g></g><g clip-path="url(#1011387153)"><g clip-path="url(#7e55889962)"><g clip-path="url(#fc39aff601)"><path fill="#ff1616" d="M 24.378906 20.347656 L 22.78125 20.90625 L 22.234375 19.335938 L 21.886719 19.457031 L 22.433594 21.027344 L 20.84375 21.582031 L 20.964844 21.925781 L 22.554688 21.371094 L 23.105469 22.9375 L 23.449219 22.820312 L 22.902344 21.25 L 24.5 20.695312 Z M 24.378906 20.347656 " fill-opacity="1" fill-rule="nonzero"/></g></g></g><g clip-path="url(#e551dcc9ba)"><g clip-path="url(#557b257a2f)"><g clip-path="url(#d2395ac380)"><path fill="#ff1616" d="M 30.472656 18.21875 L 28.882812 18.773438 L 28.335938 17.207031 L 27.984375 17.332031 L 28.53125 18.898438 L 26.941406 19.453125 L 27.0625 19.800781 L 28.652344 19.242188 L 29.199219 20.8125 L 29.550781 20.6875 L 29.003906 19.121094 L 30.59375 18.566406 Z M 30.472656 18.21875 " fill-opacity="1" fill-rule="nonzero"/></g></g></g><g clip-path="url(#91d6a4d7ff)"><g clip-path="url(#47751f82f0)"><g clip-path="url(#c37a56ed68)"><path fill="#ff1616" d="M 36.566406 16.09375 L 34.976562 16.648438 L 34.429688 15.078125 L 34.078125 15.203125 L 34.625 16.769531 L 33.035156 17.324219 L 33.15625 17.671875 L 34.746094 17.117188 L 35.292969 18.683594 L 35.644531 18.5625 L 35.097656 16.992188 L 36.6875 16.4375 Z M 36.566406 16.09375 " fill-opacity="1" fill-rule="nonzero"/></g></g></g><g clip-path="url(#f2c349f309)"><g clip-path="url(#118c7bd18b)"><g clip-path="url(#250f057a0c)"><path fill="#ff1616" d="M 42.664062 13.964844 L 41.074219 14.519531 L 40.523438 12.953125 L 40.175781 13.074219 L 40.722656 14.644531 L 39.128906 15.199219 L 39.25 15.542969 L 40.84375 14.988281 L 41.390625 16.554688 L 41.742188 16.433594 L 41.191406 14.867188 L 42.785156 14.3125 Z M 42.664062 13.964844 " fill-opacity="1" fill-rule="nonzero"/></g></g></g><g clip-path="url(#3026c4b7dd)"><g clip-path="url(#8591302386)"><g clip-path="url(#7a7a15828c)"><path fill="#ff1616" d="M 48.757812 11.835938 L 47.167969 12.390625 L 46.621094 10.824219 L 46.269531 10.945312 L 46.816406 12.515625 L 45.226562 13.070312 L 45.347656 13.417969 L 46.9375 12.859375 L 47.484375 14.429688 L 47.835938 14.304688 L 47.289062 12.738281 L 48.878906 12.183594 Z M 48.757812 11.835938 " fill-opacity="1" fill-rule="nonzero"/></g></g></g><g clip-path="url(#bb4a2ea5f4)"><g clip-path="url(#39c05335a1)"><g clip-path="url(#1b97359dd7)"><path fill="#ff1616" d="M 54.855469 9.710938 L 53.261719 10.265625 L 52.714844 8.695312 L 52.371094 8.816406 L 52.917969 10.386719 L 51.320312 10.941406 L 51.441406 11.289062 L 53.039062 10.730469 L 53.585938 12.300781 L 53.929688 12.179688 L 53.382812 10.609375 L 54.976562 10.054688 Z M 54.855469 9.710938 " fill-opacity="1" fill-rule="nonzero"/></g></g></g><g clip-path="url(#1b8017dc99)"><g clip-path="url(#448c208c11)"><g clip-path="url(#162d388cf2)"><path fill="#ff1616" d="M 26.417969 26.191406 L 24.820312 26.746094 L 24.273438 25.179688 L 23.929688 25.300781 L 24.476562 26.867188 L 22.882812 27.425781 L 23.003906 27.769531 L 24.597656 27.214844 L 25.144531 28.78125 L 25.488281 28.660156 L 24.941406 27.09375 L 26.539062 26.535156 Z M 26.417969 26.191406 " fill-opacity="1" fill-rule="nonzero"/></g></g></g><g clip-path="url(#9585190793)"><g clip-path="url(#26267c5730)"><g clip-path="url(#a286a5080b)"><path fill="#ff1616" d="M 32.511719 24.0625 L 30.921875 24.617188 L 30.375 23.050781 L 30.023438 23.171875 L 30.570312 24.742188 L 28.980469 25.296875 L 29.101562 25.644531 L 30.691406 25.085938 L 31.238281 26.65625 L 31.589844 26.53125 L 31.042969 24.964844 L 32.632812 24.410156 Z M 32.511719 24.0625 " fill-opacity="1" fill-rule="nonzero"/></g></g></g><g clip-path="url(#44ac4f1ab1)"><g clip-path="url(#cce8e678a3)"><g clip-path="url(#072573e2a0)"><path fill="#ff1616" d="M 38.609375 21.9375 L 37.015625 22.492188 L 36.46875 20.921875 L 36.117188 21.046875 L 36.664062 22.613281 L 35.074219 23.167969 L 35.195312 23.515625 L 36.785156 22.960938 L 37.332031 24.527344 L 37.683594 24.40625 L 37.136719 22.835938 L 38.730469 22.28125 Z M 38.609375 21.9375 " fill-opacity="1" fill-rule="nonzero"/></g></g></g><g clip-path="url(#3871aa6530)"><g clip-path="url(#1f9cb8445d)"><g clip-path="url(#7d0ba16cb1)"><path fill="#ff1616" d="M 44.703125 19.808594 L 43.113281 20.363281 L 42.566406 18.796875 L 42.214844 18.917969 L 42.761719 20.484375 L 41.171875 21.042969 L 41.289062 21.386719 L 42.882812 20.832031 L 43.429688 22.398438 L 43.78125 22.277344 L 43.234375 20.710938 L 44.824219 20.152344 Z M 44.703125 19.808594 " fill-opacity="1" fill-rule="nonzero"/></g></g></g><g clip-path="url(#8fa5d50ef9)"><g clip-path="url(#b234d46f3e)"><g clip-path="url(#8bc7dfdbb4)"><path fill="#ff1616" d="M 50.796875 17.679688 L 49.207031 18.234375 L 48.660156 16.667969 L 48.308594 16.789062 L 48.855469 18.359375 L 47.265625 18.914062 L 47.386719 19.257812 L 48.976562 18.703125 L 49.523438 20.273438 L 49.875 20.148438 L 49.328125 18.582031 L 50.917969 18.027344 Z M 50.796875 17.679688 " fill-opacity="1" fill-rule="nonzero"/></g></g></g><g clip-path="url(#4fb3370f68)"><g clip-path="url(#b1fde414d2)"><g clip-path="url(#f1f7c71115)"><path fill="#ff1616" d="M 28.457031 32.039062 L 26.863281 32.597656 L 26.3125 31.023438 L 25.96875 31.144531 L 26.515625 32.71875 L 24.925781 33.273438 L 25.042969 33.613281 L 26.636719 33.058594 L 27.183594 34.625 L 27.527344 34.503906 L 26.980469 32.9375 L 28.578125 32.378906 Z M 28.457031 32.039062 " fill-opacity="1" fill-rule="nonzero"/></g></g></g><g clip-path="url(#7fff0f2d99)"><g clip-path="url(#2491d25cdd)"><g clip-path="url(#4f2ae79a6a)"><path fill="#ff1616" d="M 34.554688 29.910156 L 32.964844 30.46875 L 32.414062 28.894531 L 32.0625 29.015625 L 32.613281 30.589844 L 31.019531 31.144531 L 31.140625 31.484375 L 32.730469 30.929688 L 33.277344 32.5 L 33.628906 32.375 L 33.082031 30.808594 L 34.671875 30.253906 Z M 34.554688 29.910156 " fill-opacity="1" fill-rule="nonzero"/></g></g></g><g clip-path="url(#20b5b90f2d)"><g clip-path="url(#8cae54e833)"><g clip-path="url(#8451aae52e)"><path fill="#ff1616" d="M 40.648438 27.785156 L 39.058594 28.339844 L 38.507812 26.765625 L 38.15625 26.890625 L 38.707031 28.460938 L 37.117188 29.015625 L 37.234375 29.359375 L 38.828125 28.804688 L 39.375 30.371094 L 39.726562 30.25 L 39.175781 28.679688 L 40.769531 28.125 Z M 40.648438 27.785156 " fill-opacity="1" fill-rule="nonzero"/></g></g></g><g clip-path="url(#f519629117)"><g clip-path="url(#0a6d04d676)"><g clip-path="url(#6aa450eec7)"><path fill="#ff1616" d="M 46.746094 25.65625 L 45.152344 26.210938 L 44.605469 24.640625 L 44.253906 24.761719 L 44.800781 26.335938 L 43.210938 26.890625 L 43.332031 27.230469 L 44.921875 26.675781 L 45.46875 28.242188 L 45.820312 28.121094 L 45.273438 26.550781 L 46.863281 25.996094 Z M 46.746094 25.65625 " fill-opacity="1" fill-rule="nonzero"/></g></g></g><g clip-path="url(#047f25c2ec)"><g clip-path="url(#dab8da0271)"><g clip-path="url(#76917c7986)"><path fill="#ff1616" d="M 52.839844 23.527344 L 51.25 24.085938 L 50.699219 22.511719 L 50.347656 22.632812 L 50.898438 24.207031 L 49.308594 24.761719 L 49.425781 25.101562 L 51.015625 24.546875 L 51.5625 26.117188 L 51.914062 25.992188 L 51.367188 24.425781 L 52.957031 23.871094 Z M 52.839844 23.527344 " fill-opacity="1" fill-rule="nonzero"/></g></g></g><g clip-path="url(#2c4e6d895e)"><g clip-path="url(#0e5d2fc5e7)"><g clip-path="url(#6cc4354b80)"><path fill="#ff1616" d="M 22.234375 34.085938 L 20.636719 34.644531 L 20.089844 33.074219 L 19.742188 33.195312 L 20.292969 34.765625 L 18.699219 35.320312 L 18.820312 35.660156 L 20.410156 35.105469 L 20.960938 36.679688 L 21.304688 36.558594 L 20.757812 34.984375 L 22.351562 34.425781 Z M 22.234375 34.085938 " fill-opacity="1" fill-rule="nonzero"/></g></g></g><g clip-path="url(#c616555a25)"><g clip-path="url(#00edc8c51b)"><g clip-path="url(#6176ae1537)"><path fill="#ff1616" d="M 28.328125 31.957031 L 26.738281 32.515625 L 26.191406 30.945312 L 25.839844 31.070312 L 26.386719 32.636719 L 24.796875 33.191406 L 24.914062 33.53125 L 26.503906 32.976562 L 27.054688 34.550781 L 27.40625 34.429688 L 26.855469 32.855469 L 28.449219 32.300781 Z M 28.328125 31.957031 " fill-opacity="1" fill-rule="nonzero"/></g></g></g><g clip-path="url(#7a2000cceb)"><g clip-path="url(#035ac3ba5c)"><g clip-path="url(#ebafef1811)"><path fill="#ff1616" d="M 34.425781 29.832031 L 32.832031 30.386719 L 32.285156 28.820312 L 31.933594 28.941406 L 32.480469 30.507812 L 30.890625 31.066406 L 31.007812 31.40625 L 32.601562 30.851562 L 33.148438 32.421875 L 33.5 32.300781 L 32.953125 30.726562 L 34.542969 30.171875 Z M 34.425781 29.832031 " fill-opacity="1" fill-rule="nonzero"/></g></g></g><g clip-path="url(#b87511d183)"><g clip-path="url(#4d1a6cfd2b)"><g clip-path="url(#fe2436d0d0)"><path fill="#ff1616" d="M 40.519531 27.703125 L 38.929688 28.257812 L 38.382812 26.691406 L 38.03125 26.8125 L 38.578125 28.382812 L 36.984375 28.9375 L 37.105469 29.277344 L 38.695312 28.722656 L 39.246094 30.296875 L 39.597656 30.171875 L 39.046875 28.601562 L 40.636719 28.042969 Z M 40.519531 27.703125 " fill-opacity="1" fill-rule="nonzero"/></g></g></g><g clip-path="url(#982bbb7e8b)"><g clip-path="url(#8dbfe92c91)"><g clip-path="url(#918341d69d)"><path fill="#ff1616" d="M 46.613281 25.574219 L 45.023438 26.132812 L 44.476562 24.5625 L 44.125 24.6875 L 44.671875 26.253906 L 43.082031 26.808594 L 43.199219 27.148438 L 44.792969 26.59375 L 45.339844 28.167969 L 45.691406 28.046875 L 45.140625 26.472656 L 46.734375 25.917969 Z M 46.613281 25.574219 " fill-opacity="1" fill-rule="nonzero"/></g></g></g><g clip-path="url(#a7526be8dd)"><g clip-path="url(#22ee1bd7fb)"><g clip-path="url(#aba8624ef4)"><path fill="#ff1616" d="M 52.710938 23.449219 L 51.117188 24.003906 L 50.570312 22.4375 L 50.226562 22.558594 L 50.773438 24.125 L 49.175781 24.679688 L 49.296875 25.023438 L 50.890625 24.464844 L 51.441406 26.039062 L 51.785156 25.917969 L 51.238281 24.34375 L 52.828125 23.789062 Z M 52.710938 23.449219 " fill-opacity="1" fill-rule="nonzero"/></g></g></g><g clip-path="url(#1e0c7fee28)"><g clip-path="url(#6a4f688a63)"><g clip-path="url(#c0b0850b7c)"><path fill="#ff1616" d="M 24.273438 39.929688 L 22.675781 40.488281 L 22.128906 38.917969 L 21.785156 39.039062 L 22.332031 40.609375 L 20.738281 41.164062 L 20.859375 41.507812 L 22.453125 40.953125 L 23 42.523438 L 23.34375 42.402344 L 22.796875 40.832031 L 24.394531 40.277344 Z M 24.273438 39.929688 " fill-opacity="1" fill-rule="nonzero"/></g></g></g><g clip-path="url(#f3a763ecc5)"><g clip-path="url(#98e2282c37)"><g clip-path="url(#92165a323a)"><path fill="#ff1616" d="M 30.367188 37.800781 L 28.777344 38.359375 L 28.230469 36.789062 L 27.878906 36.914062 L 28.425781 38.480469 L 26.835938 39.035156 L 26.957031 39.382812 L 28.546875 38.828125 L 29.09375 40.394531 L 29.445312 40.269531 L 28.898438 38.703125 L 30.488281 38.148438 Z M 30.367188 37.800781 " fill-opacity="1" fill-rule="nonzero"/></g></g></g><g clip-path="url(#75550e9503)"><g clip-path="url(#e4511b26ad)"><g clip-path="url(#154df17b4e)"><path fill="#ff1616" d="M 36.464844 35.675781 L 34.871094 36.230469 L 34.324219 34.664062 L 33.972656 34.785156 L 34.519531 36.351562 L 32.929688 36.90625 L 33.050781 37.253906 L 34.640625 36.699219 L 35.1875 38.265625 L 35.539062 38.144531 L 34.992188 36.574219 L 36.585938 36.019531 Z M 36.464844 35.675781 " fill-opacity="1" fill-rule="nonzero"/></g></g></g><g clip-path="url(#69de40538e)"><g clip-path="url(#869fba7d8d)"><g clip-path="url(#1e64aea050)"><path fill="#ff1616" d="M 42.558594 33.546875 L 40.96875 34.101562 L 40.421875 32.535156 L 40.070312 32.65625 L 40.617188 34.226562 L 39.027344 34.78125 L 39.144531 35.125 L 40.738281 34.570312 L 41.285156 36.136719 L 41.636719 36.015625 L 41.089844 34.449219 L 42.679688 33.894531 Z M 42.558594 33.546875 " fill-opacity="1" fill-rule="nonzero"/></g></g></g><g clip-path="url(#5bab1da088)"><g clip-path="url(#ec850670a0)"><g clip-path="url(#31afd69069)"><path fill="#ff1616" d="M 48.652344 31.417969 L 47.0625 31.972656 L 46.515625 30.40625 L 46.164062 30.53125 L 46.710938 32.097656 L 45.121094 32.652344 L 45.242188 33 L 46.832031 32.441406 L 47.378906 34.011719 L 47.730469 33.886719 L 47.183594 32.320312 L 48.773438 31.765625 Z M 48.652344 31.417969 " fill-opacity="1" fill-rule="nonzero"/></g></g></g><g clip-path="url(#5a599afe6c)"><g clip-path="url(#cd1d02b635)"><g clip-path="url(#2cdfeba0c9)"><path fill="#ff1616" d="M 54.75 29.292969 L 53.160156 29.847656 L 52.609375 28.277344 L 52.265625 28.398438 L 52.8125 29.96875 L 51.214844 30.523438 L 51.335938 30.871094 L 52.933594 30.3125 L 53.480469 31.882812 L 53.828125 31.761719 L 53.277344 30.191406 L 54.871094 29.636719 Z M 54.75 29.292969 " fill-opacity="1" fill-rule="nonzero"/></g></g></g><g clip-path="url(#610a37ae72)"><g clip-path="url(#8dfc3b8c3f)"><g clip-path="url(#c28d1970cb)"><path fill="#ff1616" d="M 26.3125 45.773438 L 24.714844 46.332031 L 24.167969 44.761719 L 23.824219 44.882812 L 24.371094 46.449219 L 22.78125 47.007812 L 22.898438 47.351562 L 24.492188 46.796875 L 25.039062 48.363281 L 25.382812 48.242188 L 24.835938 46.675781 L 26.433594 46.121094 Z M 26.3125 45.773438 " fill-opacity="1" fill-rule="nonzero"/></g></g></g><g clip-path="url(#310f89e71a)"><g clip-path="url(#93d0171a1d)"><g clip-path="url(#6e82ace8fb)"><path fill="#ff1616" d="M 32.40625 43.644531 L 30.816406 44.199219 L 30.269531 42.632812 L 29.917969 42.753906 L 30.464844 44.324219 L 28.875 44.878906 L 28.996094 45.226562 L 30.585938 44.667969 L 31.132812 46.238281 L 31.484375 46.113281 L 30.9375 44.546875 L 32.527344 43.992188 Z M 32.40625 43.644531 " fill-opacity="1" fill-rule="nonzero"/></g></g></g><g clip-path="url(#166038510b)"><g clip-path="url(#f8d5a0c1ab)"><g clip-path="url(#90f410c53c)"><path fill="#ff1616" d="M 38.503906 41.519531 L 36.914062 42.074219 L 36.363281 40.503906 L 36.015625 40.628906 L 36.5625 42.195312 L 34.96875 42.75 L 35.089844 43.097656 L 36.683594 42.542969 L 37.230469 44.109375 L 37.582031 43.988281 L 37.03125 42.417969 L 38.625 41.863281 Z M 38.503906 41.519531 " fill-opacity="1" fill-rule="nonzero"/></g></g></g><g clip-path="url(#6c37a64baf)"><g clip-path="url(#c42a97a7d9)"><g clip-path="url(#8ea0e787e9)"><path fill="#ff1616" d="M 44.597656 39.390625 L 43.007812 39.945312 L 42.460938 38.378906 L 42.109375 38.5 L 42.65625 40.066406 L 41.066406 40.625 L 41.1875 40.96875 L 42.777344 40.414062 L 43.324219 41.980469 L 43.675781 41.859375 L 43.128906 40.292969 L 44.71875 39.734375 Z M 44.597656 39.390625 " fill-opacity="1" fill-rule="nonzero"/></g></g></g><g clip-path="url(#57af065ced)"><g clip-path="url(#57c6a398f3)"><g clip-path="url(#a980d18970)"><path fill="#ff1616" d="M 50.695312 37.261719 L 49.101562 37.816406 L 48.554688 36.25 L 48.203125 36.371094 L 48.75 37.941406 L 47.160156 38.496094 L 47.28125 38.84375 L 48.871094 38.285156 L 49.417969 39.855469 L 49.769531 39.730469 L 49.222656 38.164062 L 50.816406 37.609375 Z M 50.695312 37.261719 " fill-opacity="1" fill-rule="nonzero"/></g></g></g><g clip-path="url(#86cdba79e3)"><g clip-path="url(#af7f3d548b)"><g clip-path="url(#4c60584a37)"><path fill="#ff1616" d="M 28.351562 51.617188 L 26.757812 52.171875 L 26.210938 50.605469 L 25.863281 50.726562 L 26.410156 52.292969 L 24.820312 52.851562 L 24.941406 53.195312 L 26.53125 52.640625 L 27.078125 54.207031 L 27.425781 54.085938 L 26.878906 52.519531 L 28.472656 51.960938 Z M 28.351562 51.617188 " fill-opacity="1" fill-rule="nonzero"/></g></g></g><g clip-path="url(#1b7ccc3988)"><g clip-path="url(#441fa337c5)"><g clip-path="url(#06e84066af)"><path fill="#ff1616" d="M 34.449219 49.488281 L 32.855469 50.042969 L 32.308594 48.476562 L 31.957031 48.597656 L 32.503906 50.167969 L 30.914062 50.722656 L 31.035156 51.066406 L 32.625 50.511719 L 33.171875 52.082031 L 33.523438 51.957031 L 32.976562 50.390625 L 34.570312 49.835938 Z M 34.449219 49.488281 " fill-opacity="1" fill-rule="nonzero"/></g></g></g><g clip-path="url(#94fff72efa)"><g clip-path="url(#7772e1f705)"><g clip-path="url(#d5159b02a2)"><path fill="#ff1616" d="M 40.542969 47.359375 L 38.953125 47.917969 L 38.40625 46.347656 L 38.054688 46.472656 L 38.601562 48.039062 L 37.007812 48.59375 L 37.128906 48.941406 L 38.722656 48.386719 L 39.269531 49.953125 L 39.621094 49.832031 L 39.074219 48.261719 L 40.664062 47.707031 Z M 40.542969 47.359375 " fill-opacity="1" fill-rule="nonzero"/></g></g></g><g clip-path="url(#413cd12b98)"><g clip-path="url(#754f5dce17)"><g clip-path="url(#960420e0d7)"><path fill="#ff1616" d="M 46.636719 45.234375 L 45.046875 45.789062 L 44.5 44.222656 L 44.148438 44.34375 L 44.695312 45.910156 L 43.105469 46.464844 L 43.226562 46.8125 L 44.816406 46.257812 L 45.363281 47.824219 L 45.714844 47.703125 L 45.167969 46.136719 L 46.757812 45.578125 Z M 46.636719 45.234375 " fill-opacity="1" fill-rule="nonzero"/></g></g></g><g clip-path="url(#07b4787e1f)"><g clip-path="url(#43aa947f0f)"><g clip-path="url(#d2b6679348)"><path fill="#ff1616" d="M 52.734375 43.105469 L 51.140625 43.660156 L 50.59375 42.09375 L 50.242188 42.214844 L 50.792969 43.785156 L 49.199219 44.339844 L 49.320312 44.683594 L 50.910156 44.128906 L 51.460938 45.699219 L 51.808594 45.574219 L 51.261719 44.007812 L 52.855469 43.453125 Z M 52.734375 43.105469 " fill-opacity="1" fill-rule="nonzero"/></g></g></g><g clip-path="url(#58d9da29dd)"><g clip-path="url(#233e7ab79d)"><g clip-path="url(#e68b2223c4)"><path fill="#ff1616" d="M 42.585938 53.210938 L 40.992188 53.765625 L 40.445312 52.191406 L 40.09375 52.316406 L 40.640625 53.886719 L 39.050781 54.441406 L 39.171875 54.785156 L 40.761719 54.226562 L 41.308594 55.796875 L 41.660156 55.671875 L 41.113281 54.105469 L 42.703125 53.550781 Z M 42.585938 53.210938 " fill-opacity="1" fill-rule="nonzero"/></g></g></g><g clip-path="url(#3abdefdc7f)"><g clip-path="url(#cb4d6166d2)"><g clip-path="url(#26a623c3fa)"><path fill="#ff1616" d="M 48.679688 51.082031 L 47.089844 51.636719 L 46.539062 50.0625 L 46.1875 50.1875 L 46.738281 51.761719 L 45.144531 52.316406 L 45.265625 52.65625 L 46.855469 52.101562 L 47.402344 53.667969 L 47.753906 53.546875 L 47.207031 51.976562 L 48.796875 51.421875 Z M 48.679688 51.082031 " fill-opacity="1" fill-rule="nonzero"/></g></g></g><g clip-path="url(#3d78a8d0b7)"><g clip-path="url(#4f6ab2ccf7)"><g clip-path="url(#87123ae000)"><path fill="#ff1616" d="M 54.773438 48.953125 L 53.183594 49.507812 L 52.636719 47.9375 L 52.285156 48.058594 L 52.832031 49.632812 L 51.242188 50.1875 L 51.359375 50.527344 L 52.953125 49.972656 L 53.5 51.539062 L 53.851562 51.417969 L 53.304688 49.851562 L 54.894531 49.296875 Z M 54.773438 48.953125 " fill-opacity="1" fill-rule="nonzero"/></g></g></g></svg>